<svg version="1.1" viewBox="0.0 0.0 770.7060367454068 187.3727034120735" fill="none" stroke="none" stroke-linecap="square" stroke-miterlimit="10" xmlns:xlink="http://www.w3.org/1999/xlink" xmlns="http://www.w3.org/2000/svg"><clipPath id="p.0"><path d="m0 0l770.70605 0l0 187.3727l-770.70605 0l0 -187.3727z" clip-rule="nonzero"/></clipPath><g clip-path="url(#p.0)"><path fill="#000000" fill-opacity="0.0" d="m0 0l770.70605 0l0 187.3727l-770.70605 0z" fill-rule="evenodd"/><path fill="#cfe2f3" d="m492.6483 15.853019l269.38583 0l0 152.28348l-269.38583 0z" fill-rule="evenodd"/><path stroke="#000000" stroke-width="3.0" stroke-linejoin="round" stroke-linecap="butt" d="m492.6483 15.853019l269.38583 0l0 152.28348l-269.38583 0z" fill-rule="evenodd"/><path fill="#fff2cc" d="m468.17322 15.847769l23.055115 0l0 152.28348l-23.055115 0z" fill-rule="evenodd"/><path stroke="#000000" stroke-width="3.0" stroke-linejoin="round" stroke-linecap="butt" d="m468.17322 15.847769l23.055115 0l0 152.28348l-23.055115 0z" fill-rule="evenodd"/><path fill="#f4cccc" d="m2.8818898 15.847769l465.29132 0l0 152.28348l-465.29132 0z" fill-rule="evenodd"/><path stroke="#000000" stroke-width="3.0" stroke-linejoin="round" stroke-linecap="butt" d="m2.8818898 15.847769l465.29132 0l0 152.28348l-465.29132 0z" fill-rule="evenodd"/><path fill="#000000" fill-opacity="0.0" d="m0 0l942.07874 0l0 126.77165l-942.07874 0z" fill-rule="evenodd"/><path fill="#000000" d="m21.828125 22.884373l0 22.875l6.453125 0q0.609375 0 0.859375 0.234375q0.25 0.21875 0.25 0.578125q0 0.359375 -0.25 0.59375q-0.25 0.234375 -0.859375 0.234375l-14.53125 0q-0.59375 0 -0.84375 -0.234375q-0.25 -0.234375 -0.25 -0.59375q0 -0.359375 0.25 -0.578125q0.25 -0.234375 0.84375 -0.234375l6.4375 0l0 -21.21875l-4.71875 0q-0.59375 0 -0.859375 -0.234375q-0.25 -0.234375 -0.25 -0.59375q0 -0.359375 0.25 -0.59375q0.25 -0.234375 0.859375 -0.234375l6.359375 0zm32.05078 16.453125l-16.71875 0q0.4375 3.171875 2.671875 5.125q2.234375 1.9375 5.53125 1.9375q1.84375 0 3.84375 -0.59375q2.015625 -0.609375 3.296875 -1.609375q0.359375 -0.296875 0.640625 -0.296875q0.3125 0 0.546875 0.25q0.234375 0.234375 0.234375 0.578125q0 0.328125 -0.3125 0.640625q-0.9375 0.96875 -3.328125 1.828125q-2.390625 0.84375 -4.921875 0.84375q-4.21875 0 -7.046875 -2.765625q-2.8125 -2.765625 -2.8125 -6.6875q0 -3.578125 2.640625 -6.125q2.65625 -2.5625 6.5625 -2.5625q4.015625 0 6.609375 2.625q2.609375 2.625 2.5625 6.8125zm-1.65625 -1.671875q-0.484375 -2.703125 -2.5625 -4.40625q-2.078125 -1.703125 -4.953125 -1.703125q-2.875 0 -4.953125 1.6875q-2.0625 1.671875 -2.5625 4.421875l15.03125 0zm21.503906 9.734375l0 -2.359375q-3.578125 3.0 -7.640625 3.0q-2.9375 0 -4.609375 -1.484375q-1.65625 -1.5 -1.65625 -3.671875q0 -2.375 2.1875 -4.15625q2.1875 -1.78125 6.390625 -1.78125q1.125 0 2.453125 0.15625q1.328125 0.140625 2.875 0.453125l0 -2.65625q0 -1.34375 -1.25 -2.34375q-1.25 -1.0 -3.75 -1.0q-1.90625 0 -5.375 1.109375q-0.625 0.203125 -0.796875 0.203125q-0.3125 0 -0.546875 -0.234375q-0.21875 -0.234375 -0.21875 -0.59375q0 -0.328125 0.203125 -0.515625q0.265625 -0.296875 2.203125 -0.8125q3.046875 -0.8125 4.609375 -0.8125q3.109375 0 4.84375 1.53125q1.734375 1.53125 1.734375 3.46875l0 10.859375l2.1875 0q0.609375 0 0.859375 0.234375q0.265625 0.21875 0.265625 0.578125q0 0.359375 -0.265625 0.59375q-0.25 0.234375 -0.859375 0.234375l-3.84375 0zm0 -8.171875q-1.15625 -0.328125 -2.453125 -0.484375q-1.28125 -0.15625 -2.703125 -0.15625q-3.578125 0 -5.578125 1.546875q-1.53125 1.15625 -1.53125 2.75q0 1.484375 1.15625 2.5q1.171875 1.015625 3.390625 1.015625q2.140625 0 3.953125 -0.84375q1.828125 -0.859375 3.765625 -2.703125l0 -3.625zm17.332031 -8.75l0 4.140625q3.203125 -2.890625 4.78125 -3.71875q1.59375 -0.828125 2.953125 -0.828125q1.453125 0 2.71875 0.984375q1.265625 0.984375 1.265625 1.5q0 0.375 -0.25 0.625q-0.25 0.234375 -0.609375 0.234375q-0.203125 0 -0.34375 -0.0625q-0.125 -0.078125 -0.5 -0.453125q-0.6875 -0.671875 -1.203125 -0.921875q-0.5 -0.265625 -0.984375 -0.265625q-1.078125 0 -2.59375 0.859375q-1.515625 0.859375 -5.234375 4.203125l0 8.984375l7.265625 0q0.59375 0 0.84375 0.234375q0.265625 0.21875 0.265625 0.578125q0 0.359375 -0.265625 0.59375q-0.25 0.234375 -0.84375 0.234375l-12.875 0q-0.59375 0 -0.84375 -0.21875q-0.25 -0.234375 -0.25 -0.578125q0 -0.34375 0.234375 -0.5625q0.25 -0.21875 0.859375 -0.21875l3.96875 0l0 -13.671875l-3.03125 0q-0.59375 0 -0.84375 -0.234375q-0.25 -0.234375 -0.25 -0.609375q0 -0.359375 0.234375 -0.59375q0.25 -0.234375 0.859375 -0.234375l4.671875 0zm20.660156 0l0 2.484375q1.71875 -1.734375 3.09375 -2.390625q1.390625 -0.671875 3.140625 -0.671875q1.875 0 3.40625 0.796875q1.09375 0.59375 1.984375 1.953125q0.890625 1.34375 0.890625 2.78125l0 10.328125l1.390625 0q0.578125 0 0.828125 0.234375q0.265625 0.21875 0.265625 0.578125q0 0.359375 -0.265625 0.59375q-0.25 0.234375 -0.828125 0.234375l-4.390625 0q-0.609375 0 -0.875 -0.234375q-0.25 -0.234375 -0.25 -0.59375q0 -0.359375 0.25 -0.578125q0.265625 -0.234375 0.875 -0.234375l1.359375 0l0 -10.0625q0 -1.734375 -1.265625 -2.9375q-1.265625 -1.203125 -3.40625 -1.203125q-1.609375 0 -2.8125 0.65625q-1.1875 0.65625 -3.390625 3.25l0 10.296875l1.859375 0q0.578125 0 0.828125 0.234375q0.265625 0.21875 0.265625 0.578125q0 0.359375 -0.265625 0.59375q-0.25 0.234375 -0.828125 0.234375l-5.359375 0q-0.578125 0 -0.84375 -0.234375q-0.25 -0.234375 -0.25 -0.59375q0 -0.359375 0.25 -0.578125q0.265625 -0.234375 0.84375 -0.234375l1.859375 0l0 -13.609375l-1.390625 0q-0.578125 0 -0.84375 -0.234375q-0.25 -0.234375 -0.25 -0.609375q0 -0.359375 0.25 -0.59375q0.265625 -0.234375 0.84375 -0.234375l3.03125 0zm30.113281 -8.40625l0 4.234375l-2.421875 0l0 -4.234375l2.421875 0zm0.0625 8.40625l0 15.28125l6.4375 0q0.609375 0 0.859375 0.234375q0.265625 0.21875 0.265625 0.578125q0 0.359375 -0.265625 0.59375q-0.25 0.234375 -0.859375 0.234375l-14.53125 0q-0.578125 0 -0.84375 -0.234375q-0.25 -0.234375 -0.25 -0.59375q0 -0.359375 0.25 -0.578125q0.265625 -0.234375 0.84375 -0.234375l6.453125 0l0 -13.609375l-4.78125 0q-0.59375 0 -0.859375 -0.234375q-0.265625 -0.234375 -0.265625 -0.59375q0 -0.375 0.25 -0.609375q0.265625 -0.234375 0.875 -0.234375l6.421875 0zm17.832031 0l0 2.484375q1.71875 -1.734375 3.09375 -2.390625q1.390625 -0.671875 3.140625 -0.671875q1.875 0 3.40625 0.796875q1.09375 0.59375 1.984375 1.953125q0.890625 1.34375 0.890625 2.78125l0 10.328125l1.390625 0q0.578125 0 0.828125 0.234375q0.265625 0.21875 0.265625 0.578125q0 0.359375 -0.265625 0.59375q-0.25 0.234375 -0.828125 0.234375l-4.390625 0q-0.609375 0 -0.875 -0.234375q-0.25 -0.234375 -0.25 -0.59375q0 -0.359375 0.25 -0.578125q0.265625 -0.234375 0.875 -0.234375l1.359375 0l0 -10.0625q0 -1.734375 -1.265625 -2.9375q-1.265625 -1.203125 -3.40625 -1.203125q-1.609375 0 -2.8125 0.65625q-1.1875 0.65625 -3.390625 3.25l0 10.296875l1.859375 0q0.578125 0 0.828125 0.234375q0.265625 0.21875 0.265625 0.578125q0 0.359375 -0.265625 0.59375q-0.25 0.234375 -0.828125 0.234375l-5.359375 0q-0.578125 0 -0.84375 -0.234375q-0.25 -0.234375 -0.25 -0.59375q0 -0.359375 0.25 -0.578125q0.265625 -0.234375 0.84375 -0.234375l1.859375 0l0 -13.609375l-1.390625 0q-0.578125 0 -0.84375 -0.234375q-0.25 -0.234375 -0.25 -0.609375q0 -0.359375 0.25 -0.59375q0.265625 -0.234375 0.84375 -0.234375l3.03125 0zm34.816406 3.015625l0 -3.015625l3.859375 0q0.578125 0 0.828125 0.234375q0.265625 0.234375 0.265625 0.609375q0 0.359375 -0.265625 0.59375q-0.25 0.234375 -0.828125 0.234375l-2.21875 0l0 16.390625q0 1.640625 -0.703125 2.921875q-0.46875 0.859375 -1.5625 1.78125q-1.09375 0.921875 -2.0 1.3125q-0.890625 0.390625 -2.390625 0.390625l-4.640625 0q-0.59375 0 -0.84375 -0.234375q-0.25 -0.21875 -0.25 -0.59375q0 -0.375 0.25 -0.609375q0.25 -0.234375 0.84375 -0.234375l4.703125 0.03125q1.4375 0 2.59375 -0.75q1.171875 -0.734375 1.9375 -2.171875q0.421875 -0.8125 0.421875 -2.078125l0 -4.9375q-2.625 3.625 -6.796875 3.625q-3.375 0 -5.828125 -2.515625q-2.453125 -2.515625 -2.453125 -6.046875q0 -3.53125 2.453125 -6.03125q2.453125 -2.5 5.828125 -2.5q4.171875 0 6.796875 3.59375zm0 4.9375q0 -2.890625 -1.984375 -4.875q-1.96875 -2.0 -4.734375 -2.0q-2.75 0 -4.71875 2.0q-1.96875 2.0 -1.96875 4.875q0 2.890625 1.96875 4.890625q1.96875 2.0 4.71875 2.0q2.765625 0 4.734375 -2.0q1.984375 -2.0 1.984375 -4.890625zm24.144531 8.96875l-2.03125 0.015625l-3.609375 -10.546875l-3.59375 10.546875l-2.03125 -0.015625l-3.40625 -15.25l-0.796875 0q-0.578125 0 -0.84375 -0.234375q-0.25 -0.234375 -0.25 -0.609375q0 -0.359375 0.25 -0.59375q0.265625 -0.234375 0.84375 -0.234375l4.515625 0q0.578125 0 0.828125 0.234375q0.265625 0.234375 0.265625 0.609375q0 0.359375 -0.265625 0.59375q-0.25 0.234375 -0.828125 0.234375l-2.09375 0l2.90625 13.0l3.5 -10.390625l1.953125 0l3.59375 10.390625l2.796875 -13.0l-2.078125 0q-0.578125 0 -0.84375 -0.234375q-0.265625 -0.234375 -0.265625 -0.609375q0 -0.359375 0.25 -0.59375q0.265625 -0.234375 0.859375 -0.234375l4.5 0q0.609375 0 0.859375 0.234375q0.25 0.234375 0.25 0.609375q0 0.359375 -0.25 0.59375q-0.25 0.234375 -0.859375 0.234375l-0.78125 0l-3.34375 15.25zm19.160156 -25.328125l0 4.234375l-2.421875 0l0 -4.234375l2.421875 0zm0.0625 8.40625l0 15.28125l6.4375 0q0.609375 0 0.859375 0.234375q0.265625 0.21875 0.265625 0.578125q0 0.359375 -0.265625 0.59375q-0.25 0.234375 -0.859375 0.234375l-14.53125 0q-0.578125 0 -0.84375 -0.234375q-0.25 -0.234375 -0.25 -0.59375q0 -0.359375 0.25 -0.578125q0.265625 -0.234375 0.84375 -0.234375l6.453125 0l0 -13.609375l-4.78125 0q-0.59375 0 -0.859375 -0.234375q-0.265625 -0.234375 -0.265625 -0.59375q0 -0.375 0.25 -0.609375q0.265625 -0.234375 0.875 -0.234375l6.421875 0zm19.769531 0l8.90625 0q0.578125 0 0.828125 0.234375q0.265625 0.234375 0.265625 0.609375q0 0.359375 -0.265625 0.59375q-0.25 0.234375 -0.828125 0.234375l-8.90625 0l0 10.90625q0 1.4375 1.140625 2.390625q1.140625 0.953125 3.34375 0.953125q1.65625 0 3.59375 -0.5q1.9375 -0.5 3.015625 -1.125q0.390625 -0.25 0.640625 -0.25q0.3125 0 0.546875 0.25q0.234375 0.234375 0.234375 0.578125q0 0.28125 -0.25 0.546875q-0.625 0.640625 -3.046875 1.390625q-2.40625 0.75 -4.609375 0.75q-2.875 0 -4.578125 -1.34375q-1.703125 -1.34375 -1.703125 -3.640625l0 -10.90625l-3.015625 0q-0.59375 0 -0.84375 -0.234375q-0.25 -0.234375 -0.25 -0.609375q0 -0.359375 0.25 -0.59375q0.25 -0.234375 0.84375 -0.234375l3.015625 0l0 -4.84375q0 -0.578125 0.234375 -0.828125q0.234375 -0.265625 0.59375 -0.265625q0.375 0 0.609375 0.265625q0.234375 0.25 0.234375 0.828125l0 4.84375zm21.972656 -7.59375l0 10.09375q1.5625 -1.6875 2.984375 -2.375q1.4375 -0.703125 3.21875 -0.703125q1.921875 0 3.25 0.671875q1.34375 0.671875 2.234375 2.078125q0.90625 1.390625 0.90625 2.9375l0 10.171875l1.828125 0q0.609375 0 0.84375 0.234375q0.25 0.21875 0.25 0.578125q0 0.359375 -0.25 0.59375q-0.234375 0.234375 -0.84375 0.234375l-5.328125 0q-0.609375 0 -0.859375 -0.234375q-0.25 -0.234375 -0.25 -0.59375q0 -0.359375 0.25 -0.578125q0.25 -0.234375 0.859375 -0.234375l1.84375 0l0 -10.0625q0 -1.78125 -1.28125 -2.96875q-1.28125 -1.1875 -3.5625 -1.1875q-1.796875 0 -3.078125 0.875q-0.90625 0.625 -3.015625 2.953125l0 10.390625l1.84375 0q0.59375 0 0.84375 0.234375q0.25 0.21875 0.25 0.578125q0 0.359375 -0.25 0.59375q-0.25 0.234375 -0.84375 0.234375l-5.34375 0q-0.59375 0 -0.84375 -0.234375q-0.25 -0.234375 -0.25 -0.59375q0 -0.359375 0.25 -0.578125q0.25 -0.234375 0.84375 -0.234375l1.859375 0l0 -21.21875l-2.21875 0q-0.578125 0 -0.84375 -0.234375q-0.25 -0.234375 -0.25 -0.59375q0 -0.359375 0.25 -0.59375q0.265625 -0.234375 0.84375 -0.234375l3.859375 0zm21.925781 7.59375l0 1.671875q2.09375 -2.25 4.203125 -2.25q1.265625 0 2.21875 0.671875q0.96875 0.671875 1.609375 2.046875q1.09375 -1.375 2.21875 -2.046875q1.125 -0.671875 2.25 -0.671875q1.78125 0 2.828125 1.15625q1.390625 1.484375 1.390625 3.234375l0 11.46875l1.390625 0q0.578125 0 0.828125 0.234375q0.265625 0.21875 0.265625 0.578125q0 0.359375 -0.265625 0.59375q-0.25 0.234375 -0.828125 0.234375l-3.03125 0l0 -12.953125q0 -1.25 -0.765625 -2.0625q-0.75 -0.828125 -1.75 -0.828125q-0.90625 0 -1.90625 0.671875q-0.984375 0.671875 -2.25 2.65625l0 10.875l1.359375 0q0.59375 0 0.84375 0.234375q0.25 0.21875 0.25 0.578125q0 0.359375 -0.25 0.59375q-0.25 0.234375 -0.84375 0.234375l-3.03125 0l0 -12.828125q0 -1.3125 -0.765625 -2.15625q-0.765625 -0.859375 -1.734375 -0.859375q-0.875 0 -1.734375 0.5625q-1.1875 0.8125 -2.5 2.765625l0 10.875l1.390625 0q0.578125 0 0.828125 0.234375q0.265625 0.21875 0.265625 0.578125q0 0.359375 -0.265625 0.59375q-0.25 0.234375 -0.828125 0.234375l-4.421875 0q-0.578125 0 -0.84375 -0.234375q-0.25 -0.234375 -0.25 -0.59375q0 -0.359375 0.25 -0.578125q0.265625 -0.234375 0.84375 -0.234375l1.390625 0l0 -13.609375l-1.390625 0q-0.578125 0 -0.84375 -0.234375q-0.25 -0.234375 -0.25 -0.609375q0 -0.359375 0.25 -0.59375q0.265625 -0.234375 0.84375 -0.234375l3.03125 0zm40.347656 8.859375l-16.71875 0q0.4375 3.171875 2.671875 5.125q2.234375 1.9375 5.53125 1.9375q1.84375 0 3.84375 -0.59375q2.015625 -0.609375 3.296875 -1.609375q0.359375 -0.296875 0.640625 -0.296875q0.3125 0 0.546875 0.25q0.234375 0.234375 0.234375 0.578125q0 0.328125 -0.3125 0.640625q-0.9375 0.96875 -3.328125 1.828125q-2.390625 0.84375 -4.921875 0.84375q-4.21875 0 -7.046875 -2.765625q-2.8125 -2.765625 -2.8125 -6.6875q0 -3.578125 2.640625 -6.125q2.65625 -2.5625 6.5625 -2.5625q4.015625 0 6.609375 2.625q2.609375 2.625 2.5625 6.8125zm-1.65625 -1.671875q-0.484375 -2.703125 -2.5625 -4.40625q-2.078125 -1.703125 -4.953125 -1.703125q-2.875 0 -4.953125 1.6875q-2.0625 1.671875 -2.5625 4.421875l15.03125 0zm14.832031 -7.1875l0 4.140625q3.203125 -2.890625 4.78125 -3.71875q1.59375 -0.828125 2.953125 -0.828125q1.453125 0 2.71875 0.984375q1.265625 0.984375 1.265625 1.5q0 0.375 -0.25 0.625q-0.25 0.234375 -0.609375 0.234375q-0.203125 0 -0.34375 -0.0625q-0.125 -0.078125 -0.5 -0.453125q-0.6875 -0.671875 -1.203125 -0.921875q-0.5 -0.265625 -0.984375 -0.265625q-1.078125 0 -2.59375 0.859375q-1.515625 0.859375 -5.234375 4.203125l0 8.984375l7.265625 0q0.59375 0 0.84375 0.234375q0.265625 0.21875 0.265625 0.578125q0 0.359375 -0.265625 0.59375q-0.25 0.234375 -0.84375 0.234375l-12.875 0q-0.59375 0 -0.84375 -0.21875q-0.25 -0.234375 -0.25 -0.578125q0 -0.34375 0.234375 -0.5625q0.25 -0.21875 0.859375 -0.21875l3.96875 0l0 -13.671875l-3.03125 0q-0.59375 0 -0.84375 -0.234375q-0.25 -0.234375 -0.25 -0.609375q0 -0.359375 0.234375 -0.59375q0.25 -0.234375 0.859375 -0.234375l4.671875 0zm24.003906 0l0 4.140625q3.203125 -2.890625 4.78125 -3.71875q1.59375 -0.828125 2.953125 -0.828125q1.453125 0 2.71875 0.984375q1.265625 0.984375 1.265625 1.5q0 0.375 -0.25 0.625q-0.25 0.234375 -0.609375 0.234375q-0.203125 0 -0.34375 -0.0625q-0.125 -0.078125 -0.5 -0.453125q-0.6875 -0.671875 -1.203125 -0.921875q-0.5 -0.265625 -0.984375 -0.265625q-1.078125 0 -2.59375 0.859375q-1.515625 0.859375 -5.234375 4.203125l0 8.984375l7.265625 0q0.59375 0 0.84375 0.234375q0.265625 0.21875 0.265625 0.578125q0 0.359375 -0.265625 0.59375q-0.25 0.234375 -0.84375 0.234375l-12.875 0q-0.59375 0 -0.84375 -0.21875q-0.25 -0.234375 -0.25 -0.578125q0 -0.34375 0.234375 -0.5625q0.25 -0.21875 0.859375 -0.21875l3.96875 0l0 -13.671875l-3.03125 0q-0.59375 0 -0.84375 -0.234375q-0.25 -0.234375 -0.25 -0.609375q0 -0.359375 0.234375 -0.59375q0.25 -0.234375 0.859375 -0.234375l4.671875 0zm26.769531 -8.40625l0 4.234375l-2.421875 0l0 -4.234375l2.421875 0zm0.0625 8.40625l0 15.28125l6.4375 0q0.609375 0 0.859375 0.234375q0.265625 0.21875 0.265625 0.578125q0 0.359375 -0.265625 0.59375q-0.25 0.234375 -0.859375 0.234375l-14.53125 0q-0.578125 0 -0.84375 -0.234375q-0.25 -0.234375 -0.25 -0.59375q0 -0.359375 0.25 -0.578125q0.265625 -0.234375 0.84375 -0.234375l6.453125 0l0 -13.609375l-4.78125 0q-0.59375 0 -0.859375 -0.234375q-0.265625 -0.234375 -0.265625 -0.59375q0 -0.375 0.25 -0.609375q0.265625 -0.234375 0.875 -0.234375l6.421875 0zm19.769531 0l8.90625 0q0.578125 0 0.828125 0.234375q0.265625 0.234375 0.265625 0.609375q0 0.359375 -0.265625 0.59375q-0.25 0.234375 -0.828125 0.234375l-8.90625 0l0 10.90625q0 1.4375 1.140625 2.390625q1.140625 0.953125 3.34375 0.953125q1.65625 0 3.59375 -0.5q1.9375 -0.5 3.015625 -1.125q0.390625 -0.25 0.640625 -0.25q0.3125 0 0.546875 0.25q0.234375 0.234375 0.234375 0.578125q0 0.28125 -0.25 0.546875q-0.625 0.640625 -3.046875 1.390625q-2.40625 0.75 -4.609375 0.75q-2.875 0 -4.578125 -1.34375q-1.703125 -1.34375 -1.703125 -3.640625l0 -10.90625l-3.015625 0q-0.59375 0 -0.84375 -0.234375q-0.25 -0.234375 -0.25 -0.609375q0 -0.359375 0.25 -0.59375q0.25 -0.234375 0.84375 -0.234375l3.015625 0l0 -4.84375q0 -0.578125 0.234375 -0.828125q0.234375 -0.265625 0.59375 -0.265625q0.375 0 0.609375 0.265625q0.234375 0.25 0.234375 0.828125l0 4.84375zm24.003906 0l8.90625 0q0.578125 0 0.828125 0.234375q0.265625 0.234375 0.265625 0.609375q0 0.359375 -0.265625 0.59375q-0.25 0.234375 -0.828125 0.234375l-8.90625 0l0 10.90625q0 1.4375 1.140625 2.390625q1.140625 0.953125 3.34375 0.953125q1.65625 0 3.59375 -0.5q1.9375 -0.5 3.015625 -1.125q0.390625 -0.25 0.640625 -0.25q0.3125 0 0.546875 0.25q0.234375 0.234375 0.234375 0.578125q0 0.28125 -0.25 0.546875q-0.625 0.640625 -3.046875 1.390625q-2.40625 0.75 -4.609375 0.75q-2.875 0 -4.578125 -1.34375q-1.703125 -1.34375 -1.703125 -3.640625l0 -10.90625l-3.015625 0q-0.59375 0 -0.84375 -0.234375q-0.25 -0.234375 -0.25 -0.609375q0 -0.359375 0.25 -0.59375q0.25 -0.234375 0.84375 -0.234375l3.015625 0l0 -4.84375q0 -0.578125 0.234375 -0.828125q0.234375 -0.265625 0.59375 -0.265625q0.375 0 0.609375 0.265625q0.234375 0.25 0.234375 0.828125l0 4.84375zm32.14453 11.015625l0 -0.203125q-0.484375 0.078125 -0.90625 0.125q-0.40625 0.03125 -0.75 0.03125q-2.40625 0 -3.9375 -1.484375q-1.53125 -1.484375 -1.53125 -3.59375q0 -2.40625 1.890625 -4.125q1.90625 -1.734375 5.234375 -1.734375l0 -1.90625q0 -2.140625 -1.328125 -3.5q-1.328125 -1.375 -3.328125 -1.375q-1.375 0 -2.609375 0.703125q-0.84375 0.484375 -1.390625 1.1875q-0.9375 1.234375 -1.609375 2.96875q-0.671875 1.71875 -0.671875 4.28125l0 6.46875q0 3.78125 1.75 6.375q1.75 2.59375 4.71875 2.59375q2.921875 0 4.390625 -1.390625q0.328125 -0.3125 0.640625 -0.3125q0.328125 0 0.5625 0.234375q0.234375 0.234375 0.234375 0.546875q0 0.625 -1.171875 1.359375q-1.875 1.203125 -4.890625 1.203125q-1.5625 0 -2.875 -0.578125q-1.296875 -0.578125 -2.171875 -1.59375q-0.546875 -0.609375 -1.3125 -2.078125q-0.75 -1.46875 -1.0625 -2.59375q-0.453125 -1.578125 -0.453125 -3.765625l0 -6.5625q0 -5.0 2.65625 -8.171875q2.109375 -2.53125 5.1875 -2.53125q1.609375 0 2.953125 0.671875q1.34375 0.671875 2.375 2.25q1.046875 1.5625 1.046875 3.609375l0 11.25q0.390625 0.046875 0.578125 0.265625q0.203125 0.203125 0.203125 0.546875q0 0.25 -0.125 0.453125q-0.125 0.203125 -0.3125 0.296875q-0.1875 0.078125 -0.65625 0.078125l-1.328125 0zm0 -9.375q-2.578125 0.03125 -4.03125 1.296875q-1.453125 1.265625 -1.453125 2.90625q0 1.484375 1.0625 2.484375q1.0625 1.0 2.96875 1.0q0.34375 0 0.703125 -0.046875q0.359375 -0.0625 0.75 -0.140625l0 -7.5zm24.738281 1.375l0 -3.015625l3.859375 0q0.578125 0 0.828125 0.234375q0.265625 0.234375 0.265625 0.609375q0 0.359375 -0.265625 0.59375q-0.25 0.234375 -0.828125 0.234375l-2.21875 0l0 16.390625q0 1.640625 -0.703125 2.921875q-0.46875 0.859375 -1.5625 1.78125q-1.09375 0.921875 -2.0 1.3125q-0.890625 0.390625 -2.390625 0.390625l-4.640625 0q-0.59375 0 -0.84375 -0.234375q-0.25 -0.21875 -0.25 -0.59375q0 -0.375 0.25 -0.609375q0.25 -0.234375 0.84375 -0.234375l4.703125 0.03125q1.4375 0 2.59375 -0.75q1.171875 -0.734375 1.9375 -2.171875q0.421875 -0.8125 0.421875 -2.078125l0 -4.9375q-2.625 3.625 -6.796875 3.625q-3.375 0 -5.828125 -2.515625q-2.453125 -2.515625 -2.453125 -6.046875q0 -3.53125 2.453125 -6.03125q2.453125 -2.5 5.828125 -2.5q4.171875 0 6.796875 3.59375zm0 4.9375q0 -2.890625 -1.984375 -4.875q-1.96875 -2.0 -4.734375 -2.0q-2.75 0 -4.71875 2.0q-1.96875 2.0 -1.96875 4.875q0 2.890625 1.96875 4.890625q1.96875 2.0 4.71875 2.0q2.765625 0 4.734375 -2.0q1.984375 -2.0 1.984375 -4.890625zm11.019531 -7.953125l0 1.671875q2.09375 -2.25 4.203125 -2.25q1.265625 0 2.21875 0.671875q0.96875 0.671875 1.609375 2.046875q1.09375 -1.375 2.21875 -2.046875q1.125 -0.671875 2.25 -0.671875q1.78125 0 2.828125 1.15625q1.390625 1.484375 1.390625 3.234375l0 11.46875l1.390625 0q0.578125 0 0.828125 0.234375q0.265625 0.21875 0.265625 0.578125q0 0.359375 -0.265625 0.59375q-0.25 0.234375 -0.828125 0.234375l-3.03125 0l0 -12.953125q0 -1.25 -0.765625 -2.0625q-0.75 -0.828125 -1.75 -0.828125q-0.90625 0 -1.90625 0.671875q-0.984375 0.671875 -2.25 2.65625l0 10.875l1.359375 0q0.59375 0 0.84375 0.234375q0.25 0.21875 0.25 0.578125q0 0.359375 -0.25 0.59375q-0.25 0.234375 -0.84375 0.234375l-3.03125 0l0 -12.828125q0 -1.3125 -0.765625 -2.15625q-0.765625 -0.859375 -1.734375 -0.859375q-0.875 0 -1.734375 0.5625q-1.1875 0.8125 -2.5 2.765625l0 10.875l1.390625 0q0.578125 0 0.828125 0.234375q0.265625 0.21875 0.265625 0.578125q0 0.359375 -0.265625 0.59375q-0.25 0.234375 -0.828125 0.234375l-4.421875 0q-0.578125 0 -0.84375 -0.234375q-0.25 -0.234375 -0.25 -0.59375q0 -0.359375 0.25 -0.578125q0.265625 -0.234375 0.84375 -0.234375l1.390625 0l0 -13.609375l-1.390625 0q-0.578125 0 -0.84375 -0.234375q-0.25 -0.234375 -0.25 -0.609375q0 -0.359375 0.25 -0.59375q0.265625 -0.234375 0.84375 -0.234375l3.03125 0zm36.191406 16.921875l0 -2.359375q-3.578125 3.0 -7.640625 3.0q-2.9375 0 -4.609375 -1.484375q-1.65625 -1.5 -1.65625 -3.671875q0 -2.375 2.1875 -4.15625q2.1875 -1.78125 6.390625 -1.78125q1.125 0 2.453125 0.15625q1.328125 0.140625 2.875 0.453125l0 -2.65625q0 -1.34375 -1.25 -2.34375q-1.25 -1.0 -3.75 -1.0q-1.90625 0 -5.375 1.109375q-0.625 0.203125 -0.796875 0.203125q-0.3125 0 -0.546875 -0.234375q-0.21875 -0.234375 -0.21875 -0.59375q0 -0.328125 0.203125 -0.515625q0.265625 -0.296875 2.203125 -0.8125q3.046875 -0.8125 4.609375 -0.8125q3.109375 0 4.84375 1.53125q1.734375 1.53125 1.734375 3.46875l0 10.859375l2.1875 0q0.609375 0 0.859375 0.234375q0.265625 0.21875 0.265625 0.578125q0 0.359375 -0.265625 0.59375q-0.25 0.234375 -0.859375 0.234375l-3.84375 0zm0 -8.171875q-1.15625 -0.328125 -2.453125 -0.484375q-1.28125 -0.15625 -2.703125 -0.15625q-3.578125 0 -5.578125 1.546875q-1.53125 1.15625 -1.53125 2.75q0 1.484375 1.15625 2.5q1.171875 1.015625 3.390625 1.015625q2.140625 0 3.953125 -0.84375q1.828125 -0.859375 3.765625 -2.703125l0 -3.625zm20.097656 -17.15625l0 4.234375l-2.421875 0l0 -4.234375l2.421875 0zm0.0625 8.40625l0 15.28125l6.4375 0q0.609375 0 0.859375 0.234375q0.265625 0.21875 0.265625 0.578125q0 0.359375 -0.265625 0.59375q-0.25 0.234375 -0.859375 0.234375l-14.53125 0q-0.578125 0 -0.84375 -0.234375q-0.25 -0.234375 -0.25 -0.59375q0 -0.359375 0.25 -0.578125q0.265625 -0.234375 0.84375 -0.234375l6.453125 0l0 -13.609375l-4.78125 0q-0.59375 0 -0.859375 -0.234375q-0.265625 -0.234375 -0.265625 -0.59375q0 -0.375 0.25 -0.609375q0.265625 -0.234375 0.875 -0.234375l6.421875 0zm23.957031 -7.59375l0 22.875l6.453125 0q0.609375 0 0.859375 0.234375q0.25 0.21875 0.25 0.578125q0 0.359375 -0.25 0.59375q-0.25 0.234375 -0.859375 0.234375l-14.53125 0q-0.59375 0 -0.84375 -0.234375q-0.25 -0.234375 -0.25 -0.59375q0 -0.359375 0.25 -0.578125q0.25 -0.234375 0.84375 -0.234375l6.4375 0l0 -21.21875l-4.71875 0q-0.59375 0 -0.859375 -0.234375q-0.25 -0.234375 -0.25 -0.59375q0 -0.359375 0.25 -0.59375q0.25 -0.234375 0.859375 -0.234375l6.359375 0zm22.832031 19.8125l0.703125 0q1.09375 0 1.875 0.765625q0.78125 0.765625 0.78125 1.859375q0 1.140625 -0.796875 1.90625q-0.78125 0.765625 -1.859375 0.765625l-0.703125 0q-1.09375 0 -1.875 -0.765625q-0.78125 -0.78125 -0.78125 -1.875q0 -1.140625 0.796875 -1.890625q0.796875 -0.765625 1.859375 -0.765625zm31.191406 -10.546875l0 -0.546875q0 -0.609375 0.234375 -0.859375q0.234375 -0.265625 0.59375 -0.265625q0.375 0 0.609375 0.265625q0.234375 0.25 0.234375 0.859375l0 3.703125q-0.03125 0.609375 -0.25 0.859375q-0.21875 0.25 -0.59375 0.25q-0.328125 0 -0.5625 -0.21875q-0.21875 -0.21875 -0.265625 -0.75q-0.109375 -1.390625 -1.828125 -2.640625q-1.703125 -1.25 -4.59375 -1.25q-3.65625 0 -5.546875 2.296875q-1.890625 2.28125 -1.890625 5.21875q0 3.1875 2.078125 5.265625q2.09375 2.0625 5.421875 2.0625q1.90625 0 3.890625 -0.703125q1.984375 -0.703125 3.59375 -2.265625q0.40625 -0.390625 0.71875 -0.390625q0.328125 0 0.546875 0.234375q0.234375 0.21875 0.234375 0.546875q0 0.84375 -1.96875 2.125q-3.1875 2.09375 -7.09375 2.09375q-3.96875 0 -6.515625 -2.53125q-2.546875 -2.53125 -2.546875 -6.40625q0 -3.96875 2.609375 -6.578125q2.609375 -2.625 6.5625 -2.625q3.78125 0 6.328125 2.25zm26.332031 6.828125q0 3.75 -2.6875 6.40625q-2.6875 2.65625 -6.46875 2.65625q-3.828125 0 -6.515625 -2.65625q-2.671875 -2.671875 -2.671875 -6.40625q0 -3.75 2.671875 -6.40625q2.6875 -2.671875 6.515625 -2.671875q3.78125 0 6.46875 2.65625q2.6875 2.65625 2.6875 6.421875zm-1.65625 0q0 -3.078125 -2.203125 -5.25q-2.1875 -2.171875 -5.3125 -2.171875q-3.125 0 -5.328125 2.1875q-2.203125 2.171875 -2.203125 5.234375q0 3.046875 2.203125 5.234375q2.203125 2.1875 5.328125 2.1875q3.125 0 5.3125 -2.171875q2.203125 -2.1875 2.203125 -5.25zm9.019531 -8.5l0 1.671875q2.09375 -2.25 4.203125 -2.25q1.265625 0 2.21875 0.671875q0.96875 0.671875 1.609375 2.046875q1.09375 -1.375 2.21875 -2.046875q1.125 -0.671875 2.25 -0.671875q1.78125 0 2.828125 1.15625q1.390625 1.484375 1.390625 3.234375l0 11.46875l1.390625 0q0.578125 0 0.828125 0.234375q0.265625 0.21875 0.265625 0.578125q0 0.359375 -0.265625 0.59375q-0.25 0.234375 -0.828125 0.234375l-3.03125 0l0 -12.953125q0 -1.25 -0.765625 -2.0625q-0.75 -0.828125 -1.75 -0.828125q-0.90625 0 -1.90625 0.671875q-0.984375 0.671875 -2.25 2.65625l0 10.875l1.359375 0q0.59375 0 0.84375 0.234375q0.25 0.21875 0.25 0.578125q0 0.359375 -0.25 0.59375q-0.25 0.234375 -0.84375 0.234375l-3.03125 0l0 -12.828125q0 -1.3125 -0.765625 -2.15625q-0.765625 -0.859375 -1.734375 -0.859375q-0.875 0 -1.734375 0.5625q-1.1875 0.8125 -2.5 2.765625l0 10.875l1.390625 0q0.578125 0 0.828125 0.234375q0.265625 0.21875 0.265625 0.578125q0 0.359375 -0.265625 0.59375q-0.25 0.234375 -0.828125 0.234375l-4.421875 0q-0.578125 0 -0.84375 -0.234375q-0.25 -0.234375 -0.25 -0.59375q0 -0.359375 0.25 -0.578125q0.265625 -0.234375 0.84375 -0.234375l1.390625 0l0 -13.609375l-1.390625 0q-0.578125 0 -0.84375 -0.234375q-0.25 -0.234375 -0.25 -0.609375q0 -0.359375 0.25 -0.59375q0.265625 -0.234375 0.84375 -0.234375l3.03125 0z" fill-rule="nonzero"/><path fill="#000000" d="m21.828125 70.88437l0 22.875l6.453125 0q0.609375 0 0.859375 0.234375q0.25 0.21875 0.25 0.578125q0 0.359375 -0.25 0.59375q-0.25 0.234375 -0.859375 0.234375l-14.53125 0q-0.59375 0 -0.84375 -0.234375q-0.25 -0.234375 -0.25 -0.59375q0 -0.359375 0.25 -0.578125q0.25 -0.234375 0.84375 -0.234375l6.4375 0l0 -21.21875l-4.71875 0q-0.59375 0 -0.859375 -0.234375q-0.25 -0.234375 -0.25 -0.59375q0 -0.359375 0.25 -0.59375q0.25 -0.234375 0.859375 -0.234375l6.359375 0zm32.05078 16.453125l-16.71875 0q0.4375 3.171875 2.671875 5.125q2.234375 1.9375 5.53125 1.9375q1.84375 0 3.84375 -0.59375q2.015625 -0.609375 3.296875 -1.609375q0.359375 -0.296875 0.640625 -0.296875q0.3125 0 0.546875 0.25q0.234375 0.234375 0.234375 0.578125q0 0.328125 -0.3125 0.640625q-0.9375 0.96875 -3.328125 1.828125q-2.390625 0.84375 -4.921875 0.84375q-4.21875 0 -7.046875 -2.765625q-2.8125 -2.765625 -2.8125 -6.6875q0 -3.578125 2.640625 -6.125q2.65625 -2.5625 6.5625 -2.5625q4.015625 0 6.609375 2.625q2.609375 2.625 2.5625 6.8125zm-1.65625 -1.671875q-0.484375 -2.703125 -2.5625 -4.40625q-2.078125 -1.703125 -4.953125 -1.703125q-2.875 0 -4.953125 1.6875q-2.0625 1.671875 -2.5625 4.421875l15.03125 0zm21.503906 9.734375l0 -2.359375q-3.578125 3.0 -7.640625 3.0q-2.9375 0 -4.609375 -1.484375q-1.65625 -1.5 -1.65625 -3.671875q0 -2.375 2.1875 -4.15625q2.1875 -1.78125 6.390625 -1.78125q1.125 0 2.453125 0.15625q1.328125 0.140625 2.875 0.453125l0 -2.65625q0 -1.34375 -1.25 -2.34375q-1.25 -1.0 -3.75 -1.0q-1.90625 0 -5.375 1.109375q-0.625 0.203125 -0.796875 0.203125q-0.3125 0 -0.546875 -0.234375q-0.21875 -0.234375 -0.21875 -0.59375q0 -0.328125 0.203125 -0.515625q0.265625 -0.296875 2.203125 -0.8125q3.046875 -0.8125 4.609375 -0.8125q3.109375 0 4.84375 1.53125q1.734375 1.53125 1.734375 3.46875l0 10.859375l2.1875 0q0.609375 0 0.859375 0.234375q0.265625 0.21875 0.265625 0.578125q0 0.359375 -0.265625 0.59375q-0.25 0.234375 -0.859375 0.234375l-3.84375 0zm0 -8.171875q-1.15625 -0.328125 -2.453125 -0.484375q-1.28125 -0.15625 -2.703125 -0.15625q-3.578125 0 -5.578125 1.546875q-1.53125 1.15625 -1.53125 2.75q0 1.484375 1.15625 2.5q1.171875 1.015625 3.390625 1.015625q2.140625 0 3.953125 -0.84375q1.828125 -0.859375 3.765625 -2.703125l0 -3.625zm17.332031 -8.75l0 4.140625q3.203125 -2.890625 4.78125 -3.71875q1.59375 -0.828125 2.953125 -0.828125q1.453125 0 2.71875 0.984375q1.265625 0.984375 1.265625 1.5q0 0.375 -0.25 0.625q-0.25 0.234375 -0.609375 0.234375q-0.203125 0 -0.34375 -0.0625q-0.125 -0.078125 -0.5 -0.453125q-0.6875 -0.671875 -1.203125 -0.921875q-0.5 -0.265625 -0.984375 -0.265625q-1.078125 0 -2.59375 0.859375q-1.515625 0.859375 -5.234375 4.203125l0 8.984375l7.265625 0q0.59375 0 0.84375 0.234375q0.265625 0.21875 0.265625 0.578125q0 0.359375 -0.265625 0.59375q-0.25 0.234375 -0.84375 0.234375l-12.875 0q-0.59375 0 -0.84375 -0.21875q-0.25 -0.234375 -0.25 -0.578125q0 -0.34375 0.234375 -0.5625q0.25 -0.21875 0.859375 -0.21875l3.96875 0l0 -13.671875l-3.03125 0q-0.59375 0 -0.84375 -0.234375q-0.25 -0.234375 -0.25 -0.609375q0 -0.359375 0.234375 -0.59375q0.25 -0.234375 0.859375 -0.234375l4.671875 0zm20.660156 0l0 2.484375q1.71875 -1.734375 3.09375 -2.390625q1.390625 -0.671875 3.140625 -0.671875q1.875 0 3.40625 0.796875q1.09375 0.59375 1.984375 1.953125q0.890625 1.34375 0.890625 2.78125l0 10.328125l1.390625 0q0.578125 0 0.828125 0.234375q0.265625 0.21875 0.265625 0.578125q0 0.359375 -0.265625 0.59375q-0.25 0.234375 -0.828125 0.234375l-4.390625 0q-0.609375 0 -0.875 -0.234375q-0.25 -0.234375 -0.25 -0.59375q0 -0.359375 0.25 -0.578125q0.265625 -0.234375 0.875 -0.234375l1.359375 0l0 -10.0625q0 -1.734375 -1.265625 -2.9375q-1.265625 -1.203125 -3.40625 -1.203125q-1.609375 0 -2.8125 0.65625q-1.1875 0.65625 -3.390625 3.25l0 10.296875l1.859375 0q0.578125 0 0.828125 0.234375q0.265625 0.21875 0.265625 0.578125q0 0.359375 -0.265625 0.59375q-0.25 0.234375 -0.828125 0.234375l-5.359375 0q-0.578125 0 -0.84375 -0.234375q-0.25 -0.234375 -0.25 -0.59375q0 -0.359375 0.25 -0.578125q0.265625 -0.234375 0.84375 -0.234375l1.859375 0l0 -13.609375l-1.390625 0q-0.578125 0 -0.84375 -0.234375q-0.25 -0.234375 -0.25 -0.609375q0 -0.359375 0.25 -0.59375q0.265625 -0.234375 0.84375 -0.234375l3.03125 0zm30.113281 -8.40625l0 4.234375l-2.421875 0l0 -4.234375l2.421875 0zm0.0625 8.40625l0 15.28125l6.4375 0q0.609375 0 0.859375 0.234375q0.265625 0.21875 0.265625 0.578125q0 0.359375 -0.265625 0.59375q-0.25 0.234375 -0.859375 0.234375l-14.53125 0q-0.578125 0 -0.84375 -0.234375q-0.25 -0.234375 -0.25 -0.59375q0 -0.359375 0.25 -0.578125q0.265625 -0.234375 0.84375 -0.234375l6.453125 0l0 -13.609375l-4.78125 0q-0.59375 0 -0.859375 -0.234375q-0.265625 -0.234375 -0.265625 -0.59375q0 -0.375 0.25 -0.609375q0.265625 -0.234375 0.875 -0.234375l6.421875 0zm17.832031 0l0 2.484375q1.71875 -1.734375 3.09375 -2.390625q1.390625 -0.671875 3.140625 -0.671875q1.875 0 3.40625 0.796875q1.09375 0.59375 1.984375 1.953125q0.890625 1.34375 0.890625 2.78125l0 10.328125l1.390625 0q0.578125 0 0.828125 0.234375q0.265625 0.21875 0.265625 0.578125q0 0.359375 -0.265625 0.59375q-0.25 0.234375 -0.828125 0.234375l-4.390625 0q-0.609375 0 -0.875 -0.234375q-0.25 -0.234375 -0.25 -0.59375q0 -0.359375 0.25 -0.578125q0.265625 -0.234375 0.875 -0.234375l1.359375 0l0 -10.0625q0 -1.734375 -1.265625 -2.9375q-1.265625 -1.203125 -3.40625 -1.203125q-1.609375 0 -2.8125 0.65625q-1.1875 0.65625 -3.390625 3.25l0 10.296875l1.859375 0q0.578125 0 0.828125 0.234375q0.265625 0.21875 0.265625 0.578125q0 0.359375 -0.265625 0.59375q-0.25 0.234375 -0.828125 0.234375l-5.359375 0q-0.578125 0 -0.84375 -0.234375q-0.25 -0.234375 -0.25 -0.59375q0 -0.359375 0.25 -0.578125q0.265625 -0.234375 0.84375 -0.234375l1.859375 0l0 -13.609375l-1.390625 0q-0.578125 0 -0.84375 -0.234375q-0.25 -0.234375 -0.25 -0.609375q0 -0.359375 0.25 -0.59375q0.265625 -0.234375 0.84375 -0.234375l3.03125 0zm34.816406 3.015625l0 -3.015625l3.859375 0q0.578125 0 0.828125 0.234375q0.265625 0.234375 0.265625 0.609375q0 0.359375 -0.265625 0.59375q-0.25 0.234375 -0.828125 0.234375l-2.21875 0l0 16.390625q0 1.640625 -0.703125 2.921875q-0.46875 0.859375 -1.5625 1.78125q-1.09375 0.921875 -2.0 1.3125q-0.890625 0.390625 -2.390625 0.390625l-4.640625 0q-0.59375 0 -0.84375 -0.234375q-0.25 -0.21875 -0.25 -0.59375q0 -0.375 0.25 -0.609375q0.25 -0.234375 0.84375 -0.234375l4.703125 0.03125q1.4375 0 2.59375 -0.75q1.171875 -0.734375 1.9375 -2.171875q0.421875 -0.8125 0.421875 -2.078125l0 -4.9375q-2.625 3.625 -6.796875 3.625q-3.375 0 -5.828125 -2.515625q-2.453125 -2.515625 -2.453125 -6.046875q0 -3.53125 2.453125 -6.03125q2.453125 -2.5 5.828125 -2.5q4.171875 0 6.796875 3.59375zm0 4.9375q0 -2.890625 -1.984375 -4.875q-1.96875 -2.0 -4.734375 -2.0q-2.75 0 -4.71875 2.0q-1.96875 2.0 -1.96875 4.875q0 2.890625 1.96875 4.890625q1.96875 2.0 4.71875 2.0q2.765625 0 4.734375 -2.0q1.984375 -2.0 1.984375 -4.890625zm24.144531 8.96875l-2.03125 0.015625l-3.609375 -10.546875l-3.59375 10.546875l-2.03125 -0.015625l-3.40625 -15.25l-0.796875 0q-0.578125 0 -0.84375 -0.234375q-0.25 -0.234375 -0.25 -0.609375q0 -0.359375 0.25 -0.59375q0.265625 -0.234375 0.84375 -0.234375l4.515625 0q0.578125 0 0.828125 0.234375q0.265625 0.234375 0.265625 0.609375q0 0.359375 -0.265625 0.59375q-0.25 0.234375 -0.828125 0.234375l-2.09375 0l2.90625 13.0l3.5 -10.390625l1.953125 0l3.59375 10.390625l2.796875 -13.0l-2.078125 0q-0.578125 0 -0.84375 -0.234375q-0.265625 -0.234375 -0.265625 -0.609375q0 -0.359375 0.25 -0.59375q0.265625 -0.234375 0.859375 -0.234375l4.5 0q0.609375 0 0.859375 0.234375q0.25 0.234375 0.25 0.609375q0 0.359375 -0.25 0.59375q-0.25 0.234375 -0.859375 0.234375l-0.78125 0l-3.34375 15.25zm19.160156 -25.328125l0 4.234375l-2.421875 0l0 -4.234375l2.421875 0zm0.0625 8.40625l0 15.28125l6.4375 0q0.609375 0 0.859375 0.234375q0.265625 0.21875 0.265625 0.578125q0 0.359375 -0.265625 0.59375q-0.25 0.234375 -0.859375 0.234375l-14.53125 0q-0.578125 0 -0.84375 -0.234375q-0.25 -0.234375 -0.25 -0.59375q0 -0.359375 0.25 -0.578125q0.265625 -0.234375 0.84375 -0.234375l6.453125 0l0 -13.609375l-4.78125 0q-0.59375 0 -0.859375 -0.234375q-0.265625 -0.234375 -0.265625 -0.59375q0 -0.375 0.25 -0.609375q0.265625 -0.234375 0.875 -0.234375l6.421875 0zm19.769531 0l8.90625 0q0.578125 0 0.828125 0.234375q0.265625 0.234375 0.265625 0.609375q0 0.359375 -0.265625 0.59375q-0.25 0.234375 -0.828125 0.234375l-8.90625 0l0 10.90625q0 1.4375 1.140625 2.390625q1.140625 0.953125 3.34375 0.953125q1.65625 0 3.59375 -0.5q1.9375 -0.5 3.015625 -1.125q0.390625 -0.25 0.640625 -0.25q0.3125 0 0.546875 0.25q0.234375 0.234375 0.234375 0.578125q0 0.28125 -0.25 0.546875q-0.625 0.640625 -3.046875 1.390625q-2.40625 0.75 -4.609375 0.75q-2.875 0 -4.578125 -1.34375q-1.703125 -1.34375 -1.703125 -3.640625l0 -10.90625l-3.015625 0q-0.59375 0 -0.84375 -0.234375q-0.25 -0.234375 -0.25 -0.609375q0 -0.359375 0.25 -0.59375q0.25 -0.234375 0.84375 -0.234375l3.015625 0l0 -4.84375q0 -0.578125 0.234375 -0.828125q0.234375 -0.265625 0.59375 -0.265625q0.375 0 0.609375 0.265625q0.234375 0.25 0.234375 0.828125l0 4.84375zm21.972656 -7.59375l0 10.09375q1.5625 -1.6875 2.984375 -2.375q1.4375 -0.703125 3.21875 -0.703125q1.921875 0 3.25 0.671875q1.34375 0.671875 2.234375 2.078125q0.90625 1.390625 0.90625 2.9375l0 10.171875l1.828125 0q0.609375 0 0.84375 0.234375q0.25 0.21875 0.25 0.578125q0 0.359375 -0.25 0.59375q-0.234375 0.234375 -0.84375 0.234375l-5.328125 0q-0.609375 0 -0.859375 -0.234375q-0.25 -0.234375 -0.25 -0.59375q0 -0.359375 0.25 -0.578125q0.25 -0.234375 0.859375 -0.234375l1.84375 0l0 -10.0625q0 -1.78125 -1.28125 -2.96875q-1.28125 -1.1875 -3.5625 -1.1875q-1.796875 0 -3.078125 0.875q-0.90625 0.625 -3.015625 2.953125l0 10.390625l1.84375 0q0.59375 0 0.84375 0.234375q0.25 0.21875 0.25 0.578125q0 0.359375 -0.25 0.59375q-0.25 0.234375 -0.84375 0.234375l-5.34375 0q-0.59375 0 -0.84375 -0.234375q-0.25 -0.234375 -0.25 -0.59375q0 -0.359375 0.25 -0.578125q0.25 -0.234375 0.84375 -0.234375l1.859375 0l0 -21.21875l-2.21875 0q-0.578125 0 -0.84375 -0.234375q-0.25 -0.234375 -0.25 -0.59375q0 -0.359375 0.25 -0.59375q0.265625 -0.234375 0.84375 -0.234375l3.859375 0zm21.925781 7.59375l0 1.671875q2.09375 -2.25 4.203125 -2.25q1.265625 0 2.21875 0.671875q0.96875 0.671875 1.609375 2.046875q1.09375 -1.375 2.21875 -2.046875q1.125 -0.671875 2.25 -0.671875q1.78125 0 2.828125 1.15625q1.390625 1.484375 1.390625 3.234375l0 11.46875l1.390625 0q0.578125 0 0.828125 0.234375q0.265625 0.21875 0.265625 0.578125q0 0.359375 -0.265625 0.59375q-0.25 0.234375 -0.828125 0.234375l-3.03125 0l0 -12.953125q0 -1.25 -0.765625 -2.0625q-0.75 -0.828125 -1.75 -0.828125q-0.90625 0 -1.90625 0.671875q-0.984375 0.671875 -2.25 2.65625l0 10.875l1.359375 0q0.59375 0 0.84375 0.234375q0.25 0.21875 0.25 0.578125q0 0.359375 -0.25 0.59375q-0.25 0.234375 -0.84375 0.234375l-3.03125 0l0 -12.828125q0 -1.3125 -0.765625 -2.15625q-0.765625 -0.859375 -1.734375 -0.859375q-0.875 0 -1.734375 0.5625q-1.1875 0.8125 -2.5 2.765625l0 10.875l1.390625 0q0.578125 0 0.828125 0.234375q0.265625 0.21875 0.265625 0.578125q0 0.359375 -0.265625 0.59375q-0.25 0.234375 -0.828125 0.234375l-4.421875 0q-0.578125 0 -0.84375 -0.234375q-0.25 -0.234375 -0.25 -0.59375q0 -0.359375 0.25 -0.578125q0.265625 -0.234375 0.84375 -0.234375l1.390625 0l0 -13.609375l-1.390625 0q-0.578125 0 -0.84375 -0.234375q-0.25 -0.234375 -0.25 -0.609375q0 -0.359375 0.25 -0.59375q0.265625 -0.234375 0.84375 -0.234375l3.03125 0zm40.347656 8.859375l-16.71875 0q0.4375 3.171875 2.671875 5.125q2.234375 1.9375 5.53125 1.9375q1.84375 0 3.84375 -0.59375q2.015625 -0.609375 3.296875 -1.609375q0.359375 -0.296875 0.640625 -0.296875q0.3125 0 0.546875 0.25q0.234375 0.234375 0.234375 0.578125q0 0.328125 -0.3125 0.640625q-0.9375 0.96875 -3.328125 1.828125q-2.390625 0.84375 -4.921875 0.84375q-4.21875 0 -7.046875 -2.765625q-2.8125 -2.765625 -2.8125 -6.6875q0 -3.578125 2.640625 -6.125q2.65625 -2.5625 6.5625 -2.5625q4.015625 0 6.609375 2.625q2.609375 2.625 2.5625 6.8125zm-1.65625 -1.671875q-0.484375 -2.703125 -2.5625 -4.40625q-2.078125 -1.703125 -4.953125 -1.703125q-2.875 0 -4.953125 1.6875q-2.0625 1.671875 -2.5625 4.421875l15.03125 0zm14.832031 -7.1875l0 4.140625q3.203125 -2.890625 4.78125 -3.71875q1.59375 -0.828125 2.953125 -0.828125q1.453125 0 2.71875 0.984375q1.265625 0.984375 1.265625 1.5q0 0.375 -0.25 0.625q-0.25 0.234375 -0.609375 0.234375q-0.203125 0 -0.34375 -0.0625q-0.125 -0.078125 -0.5 -0.453125q-0.6875 -0.671875 -1.203125 -0.921875q-0.5 -0.265625 -0.984375 -0.265625q-1.078125 0 -2.59375 0.859375q-1.515625 0.859375 -5.234375 4.203125l0 8.984375l7.265625 0q0.59375 0 0.84375 0.234375q0.265625 0.21875 0.265625 0.578125q0 0.359375 -0.265625 0.59375q-0.25 0.234375 -0.84375 0.234375l-12.875 0q-0.59375 0 -0.84375 -0.21875q-0.25 -0.234375 -0.25 -0.578125q0 -0.34375 0.234375 -0.5625q0.25 -0.21875 0.859375 -0.21875l3.96875 0l0 -13.671875l-3.03125 0q-0.59375 0 -0.84375 -0.234375q-0.25 -0.234375 -0.25 -0.609375q0 -0.359375 0.234375 -0.59375q0.25 -0.234375 0.859375 -0.234375l4.671875 0zm24.003906 0l0 4.140625q3.203125 -2.890625 4.78125 -3.71875q1.59375 -0.828125 2.953125 -0.828125q1.453125 0 2.71875 0.984375q1.265625 0.984375 1.265625 1.5q0 0.375 -0.25 0.625q-0.25 0.234375 -0.609375 0.234375q-0.203125 0 -0.34375 -0.0625q-0.125 -0.078125 -0.5 -0.453125q-0.6875 -0.671875 -1.203125 -0.921875q-0.5 -0.265625 -0.984375 -0.265625q-1.078125 0 -2.59375 0.859375q-1.515625 0.859375 -5.234375 4.203125l0 8.984375l7.265625 0q0.59375 0 0.84375 0.234375q0.265625 0.21875 0.265625 0.578125q0 0.359375 -0.265625 0.59375q-0.25 0.234375 -0.84375 0.234375l-12.875 0q-0.59375 0 -0.84375 -0.21875q-0.25 -0.234375 -0.25 -0.578125q0 -0.34375 0.234375 -0.5625q0.25 -0.21875 0.859375 -0.21875l3.96875 0l0 -13.671875l-3.03125 0q-0.59375 0 -0.84375 -0.234375q-0.25 -0.234375 -0.25 -0.609375q0 -0.359375 0.234375 -0.59375q0.25 -0.234375 0.859375 -0.234375l4.671875 0zm26.769531 -8.40625l0 4.234375l-2.421875 0l0 -4.234375l2.421875 0zm0.0625 8.40625l0 15.28125l6.4375 0q0.609375 0 0.859375 0.234375q0.265625 0.21875 0.265625 0.578125q0 0.359375 -0.265625 0.59375q-0.25 0.234375 -0.859375 0.234375l-14.53125 0q-0.578125 0 -0.84375 -0.234375q-0.25 -0.234375 -0.25 -0.59375q0 -0.359375 0.25 -0.578125q0.265625 -0.234375 0.84375 -0.234375l6.453125 0l0 -13.609375l-4.78125 0q-0.59375 0 -0.859375 -0.234375q-0.265625 -0.234375 -0.265625 -0.59375q0 -0.375 0.25 -0.609375q0.265625 -0.234375 0.875 -0.234375l6.421875 0zm19.769531 0l8.90625 0q0.578125 0 0.828125 0.234375q0.265625 0.234375 0.265625 0.609375q0 0.359375 -0.265625 0.59375q-0.25 0.234375 -0.828125 0.234375l-8.90625 0l0 10.90625q0 1.4375 1.140625 2.390625q1.140625 0.953125 3.34375 0.953125q1.65625 0 3.59375 -0.5q1.9375 -0.5 3.015625 -1.125q0.390625 -0.25 0.640625 -0.25q0.3125 0 0.546875 0.25q0.234375 0.234375 0.234375 0.578125q0 0.28125 -0.25 0.546875q-0.625 0.640625 -3.046875 1.390625q-2.40625 0.75 -4.609375 0.75q-2.875 0 -4.578125 -1.34375q-1.703125 -1.34375 -1.703125 -3.640625l0 -10.90625l-3.015625 0q-0.59375 0 -0.84375 -0.234375q-0.25 -0.234375 -0.25 -0.609375q0 -0.359375 0.25 -0.59375q0.25 -0.234375 0.84375 -0.234375l3.015625 0l0 -4.84375q0 -0.578125 0.234375 -0.828125q0.234375 -0.265625 0.59375 -0.265625q0.375 0 0.609375 0.265625q0.234375 0.25 0.234375 0.828125l0 4.84375zm24.003906 0l8.90625 0q0.578125 0 0.828125 0.234375q0.265625 0.234375 0.265625 0.609375q0 0.359375 -0.265625 0.59375q-0.25 0.234375 -0.828125 0.234375l-8.90625 0l0 10.90625q0 1.4375 1.140625 2.390625q1.140625 0.953125 3.34375 0.953125q1.65625 0 3.59375 -0.5q1.9375 -0.5 3.015625 -1.125q0.390625 -0.25 0.640625 -0.25q0.3125 0 0.546875 0.25q0.234375 0.234375 0.234375 0.578125q0 0.28125 -0.25 0.546875q-0.625 0.640625 -3.046875 1.390625q-2.40625 0.75 -4.609375 0.75q-2.875 0 -4.578125 -1.34375q-1.703125 -1.34375 -1.703125 -3.640625l0 -10.90625l-3.015625 0q-0.59375 0 -0.84375 -0.234375q-0.25 -0.234375 -0.25 -0.609375q0 -0.359375 0.25 -0.59375q0.25 -0.234375 0.84375 -0.234375l3.015625 0l0 -4.84375q0 -0.578125 0.234375 -0.828125q0.234375 -0.265625 0.59375 -0.265625q0.375 0 0.609375 0.265625q0.234375 0.25 0.234375 0.828125l0 4.84375zm32.14453 11.015625l0 -0.203125q-0.484375 0.078125 -0.90625 0.125q-0.40625 0.03125 -0.75 0.03125q-2.40625 0 -3.9375 -1.484375q-1.53125 -1.484375 -1.53125 -3.59375q0 -2.40625 1.890625 -4.125q1.90625 -1.734375 5.234375 -1.734375l0 -1.90625q0 -2.140625 -1.328125 -3.5q-1.328125 -1.375 -3.328125 -1.375q-1.375 0 -2.609375 0.703125q-0.84375 0.484375 -1.390625 1.1875q-0.9375 1.234375 -1.609375 2.96875q-0.671875 1.71875 -0.671875 4.28125l0 6.46875q0 3.78125 1.75 6.375q1.75 2.59375 4.71875 2.59375q2.921875 0 4.390625 -1.390625q0.328125 -0.3125 0.640625 -0.3125q0.328125 0 0.5625 0.234375q0.234375 0.234375 0.234375 0.546875q0 0.625 -1.171875 1.359375q-1.875 1.203125 -4.890625 1.203125q-1.5625 0 -2.875 -0.578125q-1.296875 -0.578125 -2.171875 -1.59375q-0.546875 -0.609375 -1.3125 -2.078125q-0.75 -1.46875 -1.0625 -2.59375q-0.453125 -1.578125 -0.453125 -3.765625l0 -6.5625q0 -5.0 2.65625 -8.171875q2.109375 -2.53125 5.1875 -2.53125q1.609375 0 2.953125 0.671875q1.34375 0.671875 2.375 2.25q1.046875 1.5625 1.046875 3.609375l0 11.25q0.390625 0.046875 0.578125 0.265625q0.203125 0.203125 0.203125 0.546875q0 0.25 -0.125 0.453125q-0.125 0.203125 -0.3125 0.296875q-0.1875 0.078125 -0.65625 0.078125l-1.328125 0zm0 -9.375q-2.578125 0.03125 -4.03125 1.296875q-1.453125 1.265625 -1.453125 2.90625q0 1.484375 1.0625 2.484375q1.0625 1.0 2.96875 1.0q0.34375 0 0.703125 -0.046875q0.359375 -0.0625 0.75 -0.140625l0 -7.5zm28.394531 6.859375q0 3.75 -2.6875 6.40625q-2.6875 2.65625 -6.46875 2.65625q-3.828125 0 -6.515625 -2.65625q-2.671875 -2.671875 -2.671875 -6.40625q0 -3.75 2.671875 -6.40625q2.6875 -2.671875 6.515625 -2.671875q3.78125 0 6.46875 2.65625q2.6875 2.65625 2.6875 6.421875zm-1.65625 0q0 -3.078125 -2.203125 -5.25q-2.1875 -2.171875 -5.3125 -2.171875q-3.125 0 -5.328125 2.1875q-2.203125 2.171875 -2.203125 5.234375q0 3.046875 2.203125 5.234375q2.203125 2.1875 5.328125 2.1875q3.125 0 5.3125 -2.171875q2.203125 -2.1875 2.203125 -5.25zm22.113281 8.421875l0 -2.40625q-3.359375 3.046875 -7.265625 3.046875q-2.40625 0 -3.65625 -1.3125q-1.625 -1.71875 -1.625 -4.0l0 -10.578125l-2.203125 0q-0.59375 0 -0.84375 -0.234375q-0.25 -0.234375 -0.25 -0.609375q0 -0.359375 0.25 -0.59375q0.25 -0.234375 0.84375 -0.234375l3.84375 0l0 12.25q0 1.609375 1.015625 2.640625q1.015625 1.03125 2.546875 1.03125q4.0 0 7.34375 -3.671875l0 -10.578125l-3.03125 0q-0.59375 0 -0.84375 -0.234375q-0.25 -0.234375 -0.25 -0.609375q0 -0.359375 0.25 -0.59375q0.25 -0.234375 0.84375 -0.234375l4.671875 0l0 15.28125l1.375 0q0.59375 0 0.84375 0.234375q0.25 0.21875 0.25 0.578125q0 0.359375 -0.25 0.59375q-0.25 0.234375 -0.84375 0.234375l-3.015625 0zm15.019531 -16.921875l8.90625 0q0.578125 0 0.828125 0.234375q0.265625 0.234375 0.265625 0.609375q0 0.359375 -0.265625 0.59375q-0.25 0.234375 -0.828125 0.234375l-8.90625 0l0 10.90625q0 1.4375 1.140625 2.390625q1.140625 0.953125 3.34375 0.953125q1.65625 0 3.59375 -0.5q1.9375 -0.5 3.015625 -1.125q0.390625 -0.25 0.640625 -0.25q0.3125 0 0.546875 0.25q0.234375 0.234375 0.234375 0.578125q0 0.28125 -0.25 0.546875q-0.625 0.640625 -3.046875 1.390625q-2.40625 0.75 -4.609375 0.75q-2.875 0 -4.578125 -1.34375q-1.703125 -1.34375 -1.703125 -3.640625l0 -10.90625l-3.015625 0q-0.59375 0 -0.84375 -0.234375q-0.25 -0.234375 -0.25 -0.609375q0 -0.359375 0.25 -0.59375q0.25 -0.234375 0.84375 -0.234375l3.015625 0l0 -4.84375q0 -0.578125 0.234375 -0.828125q0.234375 -0.265625 0.59375 -0.265625q0.375 0 0.609375 0.265625q0.234375 0.25 0.234375 0.828125l0 4.84375zm28.191406 -7.59375l0 22.875l6.453125 0q0.609375 0 0.859375 0.234375q0.25 0.21875 0.25 0.578125q0 0.359375 -0.25 0.59375q-0.25 0.234375 -0.859375 0.234375l-14.53125 0q-0.59375 0 -0.84375 -0.234375q-0.25 -0.234375 -0.25 -0.59375q0 -0.359375 0.25 -0.578125q0.25 -0.234375 0.84375 -0.234375l6.4375 0l0 -21.21875l-4.71875 0q-0.59375 0 -0.859375 -0.234375q-0.25 -0.234375 -0.25 -0.59375q0 -0.359375 0.25 -0.59375q0.25 -0.234375 0.859375 -0.234375l6.359375 0zm32.347656 16.09375q0 3.75 -2.6875 6.40625q-2.6875 2.65625 -6.46875 2.65625q-3.828125 0 -6.515625 -2.65625q-2.671875 -2.671875 -2.671875 -6.40625q0 -3.75 2.671875 -6.40625q2.6875 -2.671875 6.515625 -2.671875q3.78125 0 6.46875 2.65625q2.6875 2.65625 2.6875 6.421875zm-1.65625 0q0 -3.078125 -2.203125 -5.25q-2.1875 -2.171875 -5.3125 -2.171875q-3.125 0 -5.328125 2.1875q-2.203125 2.171875 -2.203125 5.234375q0 3.046875 2.203125 5.234375q2.203125 2.1875 5.328125 2.1875q3.125 0 5.3125 -2.171875q2.203125 -2.1875 2.203125 -5.25zm25.660156 0q0 3.75 -2.6875 6.40625q-2.6875 2.65625 -6.46875 2.65625q-3.828125 0 -6.515625 -2.65625q-2.671875 -2.671875 -2.671875 -6.40625q0 -3.75 2.671875 -6.40625q2.6875 -2.671875 6.515625 -2.671875q3.78125 0 6.46875 2.65625q2.6875 2.65625 2.6875 6.421875zm-1.65625 0q0 -3.078125 -2.203125 -5.25q-2.1875 -2.171875 -5.3125 -2.171875q-3.125 0 -5.328125 2.1875q-2.203125 2.171875 -2.203125 5.234375q0 3.046875 2.203125 5.234375q2.203125 2.1875 5.328125 2.1875q3.125 0 5.3125 -2.171875q2.203125 -2.1875 2.203125 -5.25zm13.160156 1.109375l0 7.3125l-3.84375 0q-0.59375 0 -0.84375 -0.234375q-0.25 -0.234375 -0.25 -0.59375q0 -0.359375 0.25 -0.578125q0.25 -0.234375 0.84375 -0.234375l2.203125 0l0 -21.21875l-2.203125 0q-0.59375 0 -0.84375 -0.234375q-0.25 -0.234375 -0.25 -0.59375q0 -0.359375 0.25 -0.59375q0.25 -0.234375 0.84375 -0.234375l3.84375 0l0 15.125l6.96875 -5.859375l-0.828125 0q-0.59375 0 -0.84375 -0.234375q-0.25 -0.234375 -0.25 -0.59375q0 -0.375 0.25 -0.609375q0.25 -0.234375 0.84375 -0.234375l5.25 0q0.609375 0 0.859375 0.234375q0.25 0.234375 0.25 0.609375q0 0.359375 -0.25 0.59375q-0.25 0.234375 -0.859375 0.234375l-1.890625 0l-6.40625 5.34375l8.09375 8.265625l1.90625 0q0.59375 0 0.84375 0.234375q0.265625 0.21875 0.265625 0.578125q0 0.359375 -0.265625 0.59375q-0.25 0.234375 -0.84375 0.234375l-5.3125 0q-0.59375 0 -0.84375 -0.234375q-0.25 -0.234375 -0.25 -0.59375q0 -0.359375 0.25 -0.578125q0.25 -0.234375 0.84375 -0.234375l1.140625 0l-7.046875 -7.25l-1.875 1.578125zm26.988281 2.609375l0.703125 0q1.09375 0 1.875 0.765625q0.78125 0.765625 0.78125 1.859375q0 1.140625 -0.796875 1.90625q-0.78125 0.765625 -1.859375 0.765625l-0.703125 0q-1.09375 0 -1.875 -0.765625q-0.78125 -0.78125 -0.78125 -1.875q0 -1.140625 0.796875 -1.890625q0.796875 -0.765625 1.859375 -0.765625zm31.191406 -10.546875l0 -0.546875q0 -0.609375 0.234375 -0.859375q0.234375 -0.265625 0.59375 -0.265625q0.375 0 0.609375 0.265625q0.234375 0.25 0.234375 0.859375l0 3.703125q-0.03125 0.609375 -0.25 0.859375q-0.21875 0.25 -0.59375 0.25q-0.328125 0 -0.5625 -0.21875q-0.21875 -0.21875 -0.265625 -0.75q-0.109375 -1.390625 -1.828125 -2.640625q-1.703125 -1.25 -4.59375 -1.25q-3.65625 0 -5.546875 2.296875q-1.890625 2.28125 -1.890625 5.21875q0 3.1875 2.078125 5.265625q2.09375 2.0625 5.421875 2.0625q1.90625 0 3.890625 -0.703125q1.984375 -0.703125 3.59375 -2.265625q0.40625 -0.390625 0.71875 -0.390625q0.328125 0 0.546875 0.234375q0.234375 0.21875 0.234375 0.546875q0 0.84375 -1.96875 2.125q-3.1875 2.09375 -7.09375 2.09375q-3.96875 0 -6.515625 -2.53125q-2.546875 -2.53125 -2.546875 -6.40625q0 -3.96875 2.609375 -6.578125q2.609375 -2.625 6.5625 -2.625q3.78125 0 6.328125 2.25zm26.332031 6.828125q0 3.75 -2.6875 6.40625q-2.6875 2.65625 -6.46875 2.65625q-3.828125 0 -6.515625 -2.65625q-2.671875 -2.671875 -2.671875 -6.40625q0 -3.75 2.671875 -6.40625q2.6875 -2.671875 6.515625 -2.671875q3.78125 0 6.46875 2.65625q2.6875 2.65625 2.6875 6.421875zm-1.65625 0q0 -3.078125 -2.203125 -5.25q-2.1875 -2.171875 -5.3125 -2.171875q-3.125 0 -5.328125 2.1875q-2.203125 2.171875 -2.203125 5.234375q0 3.046875 2.203125 5.234375q2.203125 2.1875 5.328125 2.1875q3.125 0 5.3125 -2.171875q2.203125 -2.1875 2.203125 -5.25zm9.019531 -8.5l0 1.671875q2.09375 -2.25 4.203125 -2.25q1.265625 0 2.21875 0.671875q0.96875 0.671875 1.609375 2.046875q1.09375 -1.375 2.21875 -2.046875q1.125 -0.671875 2.25 -0.671875q1.78125 0 2.828125 1.15625q1.390625 1.484375 1.390625 3.234375l0 11.46875l1.390625 0q0.578125 0 0.828125 0.234375q0.265625 0.21875 0.265625 0.578125q0 0.359375 -0.265625 0.59375q-0.25 0.234375 -0.828125 0.234375l-3.03125 0l0 -12.953125q0 -1.25 -0.765625 -2.0625q-0.75 -0.828125 -1.75 -0.828125q-0.90625 0 -1.90625 0.671875q-0.984375 0.671875 -2.25 2.65625l0 10.875l1.359375 0q0.59375 0 0.84375 0.234375q0.25 0.21875 0.25 0.578125q0 0.359375 -0.25 0.59375q-0.25 0.234375 -0.84375 0.234375l-3.03125 0l0 -12.828125q0 -1.3125 -0.765625 -2.15625q-0.765625 -0.859375 -1.734375 -0.859375q-0.875 0 -1.734375 0.5625q-1.1875 0.8125 -2.5 2.765625l0 10.875l1.390625 0q0.578125 0 0.828125 0.234375q0.265625 0.21875 0.265625 0.578125q0 0.359375 -0.265625 0.59375q-0.25 0.234375 -0.828125 0.234375l-4.421875 0q-0.578125 0 -0.84375 -0.234375q-0.25 -0.234375 -0.25 -0.59375q0 -0.359375 0.25 -0.578125q0.265625 -0.234375 0.84375 -0.234375l1.390625 0l0 -13.609375l-1.390625 0q-0.578125 0 -0.84375 -0.234375q-0.25 -0.234375 -0.25 -0.609375q0 -0.359375 0.25 -0.59375q0.265625 -0.234375 0.84375 -0.234375l3.03125 0z" fill-rule="nonzero"/><path fill="#000000" fill-opacity="0.0" d="m3.230971 109.855644l876.9764 0l0 114.3937l-876.9764 0z" fill-rule="evenodd"/><path fill="#000000" d="m293.89893 157.25565l0 -2.40625q-3.359375 3.046875 -7.265625 3.046875q-2.40625 0 -3.65625 -1.3125q-1.625 -1.71875 -1.625 -4.0l0 -10.578125l-2.203125 0q-0.59375 0 -0.84375 -0.234375q-0.25 -0.234375 -0.25 -0.609375q0 -0.359375 0.25 -0.59375q0.25 -0.234375 0.84375 -0.234375l3.84375 0l0 12.25q0 1.609375 1.015625 2.640625q1.015625 1.03125 2.546875 1.03125q4.0 0 7.34375 -3.671875l0 -10.578125l-3.03125 0q-0.59375 0 -0.84375 -0.234375q-0.25 -0.234375 -0.25 -0.609375q0 -0.359375 0.25 -0.59375q0.25 -0.234375 0.84375 -0.234375l4.671875 0l0 15.28125l1.375 0q0.59375 0 0.84375 0.234375q0.25 0.21875 0.25 0.578125q0 0.359375 -0.25 0.59375q-0.25 0.234375 -0.84375 0.234375l-3.015625 0zm23.800781 -15.84375q0 -0.5625 0.234375 -0.8125q0.234375 -0.265625 0.59375 -0.265625q0.359375 0 0.59375 0.265625q0.234375 0.25 0.234375 0.859375l0 2.8125q0 0.578125 -0.234375 0.84375q-0.234375 0.25 -0.59375 0.25q-0.34375 0 -0.5625 -0.21875q-0.21875 -0.21875 -0.265625 -0.703125q-0.109375 -1.171875 -1.203125 -1.9375q-1.609375 -1.09375 -4.25 -1.09375q-2.75 0 -4.265625 1.109375q-1.15625 0.84375 -1.15625 1.875q0 1.171875 1.359375 1.953125q0.9375 0.546875 3.5625 0.84375q3.421875 0.375 4.75 0.84375q1.890625 0.6875 2.8125 1.90625q0.9375 1.203125 0.9375 2.609375q0 2.078125 -2.015625 3.71875q-2.015625 1.625 -5.90625 1.625q-3.875 0 -6.359375 -1.96875q0 0.65625 -0.078125 0.859375q-0.078125 0.1875 -0.28125 0.328125q-0.203125 0.140625 -0.46875 0.140625q-0.34375 0 -0.578125 -0.25q-0.234375 -0.265625 -0.234375 -0.84375l0 -3.375q0 -0.59375 0.21875 -0.84375q0.234375 -0.25 0.59375 -0.25q0.359375 0 0.59375 0.25q0.25 0.234375 0.25 0.640625q0 0.90625 0.453125 1.5q0.6875 0.9375 2.171875 1.5625q1.5 0.609375 3.671875 0.609375q3.203125 0 4.765625 -1.1875q1.5625 -1.1875 1.5625 -2.515625q0 -1.53125 -1.59375 -2.453125q-1.59375 -0.90625 -4.65625 -1.21875q-3.046875 -0.3125 -4.375 -0.8125q-1.328125 -0.515625 -2.078125 -1.53125q-0.734375 -1.015625 -0.734375 -2.1875q0 -2.109375 2.0625 -3.34375q2.078125 -1.25 4.9375 -1.25q3.40625 0 5.53125 1.65625zm27.457031 7.78125l-16.71875 0q0.4375 3.171875 2.671875 5.125q2.234375 1.9375 5.53125 1.9375q1.84375 0 3.84375 -0.59375q2.015625 -0.609375 3.296875 -1.609375q0.359375 -0.296875 0.640625 -0.296875q0.3125 0 0.546875 0.25q0.234375 0.234375 0.234375 0.578125q0 0.328125 -0.3125 0.640625q-0.9375 0.96875 -3.328125 1.828125q-2.390625 0.84375 -4.921875 0.84375q-4.21875 0 -7.046875 -2.765625q-2.8125 -2.765625 -2.8125 -6.6875q0 -3.578125 2.640625 -6.125q2.65625 -2.5625 6.5625 -2.5625q4.015625 0 6.609375 2.625q2.609375 2.625 2.5625 6.8125zm-1.65625 -1.671875q-0.484375 -2.703125 -2.5625 -4.40625q-2.078125 -1.703125 -4.953125 -1.703125q-2.875 0 -4.953125 1.6875q-2.0625 1.671875 -2.5625 4.421875l15.03125 0zm14.832031 -7.1875l0 4.140625q3.203125 -2.890625 4.78125 -3.71875q1.59375 -0.828125 2.953125 -0.828125q1.453125 0 2.71875 0.984375q1.265625 0.984375 1.265625 1.5q0 0.375 -0.25 0.625q-0.25 0.234375 -0.609375 0.234375q-0.203125 0 -0.34375 -0.0625q-0.125 -0.078125 -0.5 -0.453125q-0.6875 -0.671875 -1.203125 -0.921875q-0.5 -0.265625 -0.984375 -0.265625q-1.078125 0 -2.59375 0.859375q-1.515625 0.859375 -5.234375 4.203125l0 8.984375l7.265625 0q0.59375 0 0.84375 0.234375q0.265625 0.21875 0.265625 0.578125q0 0.359375 -0.265625 0.59375q-0.25 0.234375 -0.84375 0.234375l-12.875 0q-0.59375 0 -0.84375 -0.21875q-0.25 -0.234375 -0.25 -0.578125q0 -0.34375 0.234375 -0.5625q0.25 -0.21875 0.859375 -0.21875l3.96875 0l0 -13.671875l-3.03125 0q-0.59375 0 -0.84375 -0.234375q-0.25 -0.234375 -0.25 -0.609375q0 -0.359375 0.234375 -0.59375q0.25 -0.234375 0.859375 -0.234375l4.671875 0zm20.660156 0l0 2.484375q1.71875 -1.734375 3.09375 -2.390625q1.390625 -0.671875 3.140625 -0.671875q1.875 0 3.40625 0.796875q1.09375 0.59375 1.984375 1.953125q0.890625 1.34375 0.890625 2.78125l0 10.328125l1.390625 0q0.578125 0 0.828125 0.234375q0.265625 0.21875 0.265625 0.578125q0 0.359375 -0.265625 0.59375q-0.25 0.234375 -0.828125 0.234375l-4.390625 0q-0.609375 0 -0.875 -0.234375q-0.25 -0.234375 -0.25 -0.59375q0 -0.359375 0.25 -0.578125q0.265625 -0.234375 0.875 -0.234375l1.359375 0l0 -10.0625q0 -1.734375 -1.265625 -2.9375q-1.265625 -1.203125 -3.40625 -1.203125q-1.609375 0 -2.8125 0.65625q-1.1875 0.65625 -3.390625 3.25l0 10.296875l1.859375 0q0.578125 0 0.828125 0.234375q0.265625 0.21875 0.265625 0.578125q0 0.359375 -0.265625 0.59375q-0.25 0.234375 -0.828125 0.234375l-5.359375 0q-0.578125 0 -0.84375 -0.234375q-0.25 -0.234375 -0.25 -0.59375q0 -0.359375 0.25 -0.578125q0.265625 -0.234375 0.84375 -0.234375l1.859375 0l0 -13.609375l-1.390625 0q-0.578125 0 -0.84375 -0.234375q-0.25 -0.234375 -0.25 -0.609375q0 -0.359375 0.25 -0.59375q0.265625 -0.234375 0.84375 -0.234375l3.03125 0zm34.01953 16.921875l0 -2.359375q-3.578125 3.0 -7.640625 3.0q-2.9375 0 -4.609375 -1.484375q-1.65625 -1.5 -1.65625 -3.671875q0 -2.375 2.1875 -4.15625q2.1875 -1.78125 6.390625 -1.78125q1.125 0 2.453125 0.15625q1.328125 0.140625 2.875 0.453125l0 -2.65625q0 -1.34375 -1.25 -2.34375q-1.25 -1.0 -3.75 -1.0q-1.90625 0 -5.375 1.109375q-0.625 0.203125 -0.796875 0.203125q-0.3125 0 -0.546875 -0.234375q-0.21875 -0.234375 -0.21875 -0.59375q0 -0.328125 0.203125 -0.515625q0.265625 -0.296875 2.203125 -0.8125q3.046875 -0.8125 4.609375 -0.8125q3.109375 0 4.84375 1.53125q1.734375 1.53125 1.734375 3.46875l0 10.859375l2.1875 0q0.609375 0 0.859375 0.234375q0.265625 0.21875 0.265625 0.578125q0 0.359375 -0.265625 0.59375q-0.25 0.234375 -0.859375 0.234375l-3.84375 0zm0 -8.171875q-1.15625 -0.328125 -2.453125 -0.484375q-1.28125 -0.15625 -2.703125 -0.15625q-3.578125 0 -5.578125 1.546875q-1.53125 1.15625 -1.53125 2.75q0 1.484375 1.15625 2.5q1.171875 1.015625 3.390625 1.015625q2.140625 0 3.953125 -0.84375q1.828125 -0.859375 3.765625 -2.703125l0 -3.625zm11.816406 -8.75l0 1.671875q2.09375 -2.25 4.203125 -2.25q1.265625 0 2.21875 0.671875q0.96875 0.671875 1.609375 2.046875q1.09375 -1.375 2.21875 -2.046875q1.125 -0.671875 2.25 -0.671875q1.78125 0 2.828125 1.15625q1.390625 1.484375 1.390625 3.234375l0 11.46875l1.390625 0q0.578125 0 0.828125 0.234375q0.265625 0.21875 0.265625 0.578125q0 0.359375 -0.265625 0.59375q-0.25 0.234375 -0.828125 0.234375l-3.03125 0l0 -12.953125q0 -1.25 -0.765625 -2.0625q-0.75 -0.828125 -1.75 -0.828125q-0.90625 0 -1.90625 0.671875q-0.984375 0.671875 -2.25 2.65625l0 10.875l1.359375 0q0.59375 0 0.84375 0.234375q0.25 0.21875 0.25 0.578125q0 0.359375 -0.25 0.59375q-0.25 0.234375 -0.84375 0.234375l-3.03125 0l0 -12.828125q0 -1.3125 -0.765625 -2.15625q-0.765625 -0.859375 -1.734375 -0.859375q-0.875 0 -1.734375 0.5625q-1.1875 0.8125 -2.5 2.765625l0 10.875l1.390625 0q0.578125 0 0.828125 0.234375q0.265625 0.21875 0.265625 0.578125q0 0.359375 -0.265625 0.59375q-0.25 0.234375 -0.828125 0.234375l-4.421875 0q-0.578125 0 -0.84375 -0.234375q-0.25 -0.234375 -0.25 -0.59375q0 -0.359375 0.25 -0.578125q0.265625 -0.234375 0.84375 -0.234375l1.390625 0l0 -13.609375l-1.390625 0q-0.578125 0 -0.84375 -0.234375q-0.25 -0.234375 -0.25 -0.609375q0 -0.359375 0.25 -0.59375q0.265625 -0.234375 0.84375 -0.234375l3.03125 0zm40.347656 8.859375l-16.71875 0q0.4375 3.171875 2.671875 5.125q2.234375 1.9375 5.53125 1.9375q1.84375 0 3.84375 -0.59375q2.015625 -0.609375 3.296875 -1.609375q0.359375 -0.296875 0.640625 -0.296875q0.3125 0 0.546875 0.25q0.234375 0.234375 0.234375 0.578125q0 0.328125 -0.3125 0.640625q-0.9375 0.96875 -3.328125 1.828125q-2.390625 0.84375 -4.921875 0.84375q-4.21875 0 -7.046875 -2.765625q-2.8125 -2.765625 -2.8125 -6.6875q0 -3.578125 2.640625 -6.125q2.65625 -2.5625 6.5625 -2.5625q4.015625 0 6.609375 2.625q2.609375 2.625 2.5625 6.8125zm-1.65625 -1.671875q-0.484375 -2.703125 -2.5625 -4.40625q-2.078125 -1.703125 -4.953125 -1.703125q-2.875 0 -4.953125 1.6875q-2.0625 1.671875 -2.5625 4.421875l15.03125 0zm21.566406 3.828125l0 -0.203125q-0.484375 0.078125 -0.90625 0.125q-0.40625 0.03125 -0.75 0.03125q-2.40625 0 -3.9375 -1.484375q-1.53125 -1.484375 -1.53125 -3.59375q0 -2.40625 1.890625 -4.125q1.90625 -1.734375 5.234375 -1.734375l0 -1.90625q0 -2.140625 -1.328125 -3.5q-1.328125 -1.375 -3.328125 -1.375q-1.375 0 -2.609375 0.703125q-0.84375 0.484375 -1.390625 1.1875q-0.9375 1.234375 -1.609375 2.96875q-0.671875 1.71875 -0.671875 4.28125l0 6.46875q0 3.78125 1.75 6.375q1.75 2.59375 4.71875 2.59375q2.921875 0 4.390625 -1.390625q0.328125 -0.3125 0.640625 -0.3125q0.328125 0 0.5625 0.234375q0.234375 0.234375 0.234375 0.546875q0 0.625 -1.171875 1.359375q-1.875 1.203125 -4.890625 1.203125q-1.5625 0 -2.875 -0.578125q-1.296875 -0.578125 -2.171875 -1.59375q-0.546875 -0.609375 -1.3125 -2.078125q-0.75 -1.46875 -1.0625 -2.59375q-0.453125 -1.578125 -0.453125 -3.765625l0 -6.5625q0 -5.0 2.65625 -8.171875q2.109375 -2.53125 5.1875 -2.53125q1.609375 0 2.953125 0.671875q1.34375 0.671875 2.375 2.25q1.046875 1.5625 1.046875 3.609375l0 11.25q0.390625 0.046875 0.578125 0.265625q0.203125 0.203125 0.203125 0.546875q0 0.25 -0.125 0.453125q-0.125 0.203125 -0.3125 0.296875q-0.1875 0.078125 -0.65625 0.078125l-1.328125 0zm0 -9.375q-2.578125 0.03125 -4.03125 1.296875q-1.453125 1.265625 -1.453125 2.90625q0 1.484375 1.0625 2.484375q1.0625 1.0 2.96875 1.0q0.34375 0 0.703125 -0.046875q0.359375 -0.0625 0.75 -0.140625l0 -7.5zm27.269531 -9.234375l0 22.875l2.1875 0q0.59375 0 0.84375 0.234375q0.265625 0.21875 0.265625 0.578125q0 0.359375 -0.265625 0.59375q-0.25 0.234375 -0.84375 0.234375l-3.859375 0l0 -3.265625q-2.84375 3.90625 -7.234375 3.90625q-2.234375 0 -4.28125 -1.171875q-2.03125 -1.1875 -3.21875 -3.375q-1.171875 -2.1875 -1.171875 -4.515625q0 -2.34375 1.171875 -4.515625q1.1875 -2.1875 3.21875 -3.375q2.046875 -1.1875 4.296875 -1.1875q4.296875 0 7.21875 3.90625l0 -9.265625l-2.1875 0q-0.59375 0 -0.859375 -0.234375q-0.25 -0.234375 -0.25 -0.59375q0 -0.359375 0.25 -0.59375q0.265625 -0.234375 0.859375 -0.234375l3.859375 0zm-1.671875 16.09375q0 -3.125 -2.109375 -5.265625q-2.109375 -2.15625 -5.015625 -2.15625q-2.921875 0 -5.03125 2.15625q-2.109375 2.140625 -2.109375 5.265625q0 3.109375 2.109375 5.265625q2.109375 2.15625 5.03125 2.15625q2.90625 0 5.015625 -2.15625q2.109375 -2.15625 2.109375 -5.265625zm26.800781 0q0 3.75 -2.6875 6.40625q-2.6875 2.65625 -6.46875 2.65625q-3.828125 0 -6.515625 -2.65625q-2.671875 -2.671875 -2.671875 -6.40625q0 -3.75 2.671875 -6.40625q2.6875 -2.671875 6.515625 -2.671875q3.78125 0 6.46875 2.65625q2.6875 2.65625 2.6875 6.421875zm-1.65625 0q0 -3.078125 -2.203125 -5.25q-2.1875 -2.171875 -5.3125 -2.171875q-3.125 0 -5.328125 2.1875q-2.203125 2.171875 -2.203125 5.234375q0 3.046875 2.203125 5.234375q2.203125 2.1875 5.328125 2.1875q3.125 0 5.3125 -2.171875q2.203125 -2.1875 2.203125 -5.25zm9.019531 -8.5l0 1.671875q2.09375 -2.25 4.203125 -2.25q1.265625 0 2.21875 0.671875q0.96875 0.671875 1.609375 2.046875q1.09375 -1.375 2.21875 -2.046875q1.125 -0.671875 2.25 -0.671875q1.78125 0 2.828125 1.15625q1.390625 1.484375 1.390625 3.234375l0 11.46875l1.390625 0q0.578125 0 0.828125 0.234375q0.265625 0.21875 0.265625 0.578125q0 0.359375 -0.265625 0.59375q-0.25 0.234375 -0.828125 0.234375l-3.03125 0l0 -12.953125q0 -1.25 -0.765625 -2.0625q-0.75 -0.828125 -1.75 -0.828125q-0.90625 0 -1.90625 0.671875q-0.984375 0.671875 -2.25 2.65625l0 10.875l1.359375 0q0.59375 0 0.84375 0.234375q0.25 0.21875 0.25 0.578125q0 0.359375 -0.25 0.59375q-0.25 0.234375 -0.84375 0.234375l-3.03125 0l0 -12.828125q0 -1.3125 -0.765625 -2.15625q-0.765625 -0.859375 -1.734375 -0.859375q-0.875 0 -1.734375 0.5625q-1.1875 0.8125 -2.5 2.765625l0 10.875l1.390625 0q0.578125 0 0.828125 0.234375q0.265625 0.21875 0.265625 0.578125q0 0.359375 -0.265625 0.59375q-0.25 0.234375 -0.828125 0.234375l-4.421875 0q-0.578125 0 -0.84375 -0.234375q-0.25 -0.234375 -0.25 -0.59375q0 -0.359375 0.25 -0.578125q0.265625 -0.234375 0.84375 -0.234375l1.390625 0l0 -13.609375l-1.390625 0q-0.578125 0 -0.84375 -0.234375q-0.25 -0.234375 -0.25 -0.609375q0 -0.359375 0.25 -0.59375q0.265625 -0.234375 0.84375 -0.234375l3.03125 0zm36.191406 16.921875l0 -2.359375q-3.578125 3.0 -7.640625 3.0q-2.9375 0 -4.609375 -1.484375q-1.65625 -1.5 -1.65625 -3.671875q0 -2.375 2.1875 -4.15625q2.1875 -1.78125 6.390625 -1.78125q1.125 0 2.453125 0.15625q1.328125 0.140625 2.875 0.453125l0 -2.65625q0 -1.34375 -1.25 -2.34375q-1.25 -1.0 -3.75 -1.0q-1.90625 0 -5.375 1.109375q-0.625 0.203125 -0.796875 0.203125q-0.3125 0 -0.546875 -0.234375q-0.21875 -0.234375 -0.21875 -0.59375q0 -0.328125 0.203125 -0.515625q0.265625 -0.296875 2.203125 -0.8125q3.046875 -0.8125 4.609375 -0.8125q3.109375 0 4.84375 1.53125q1.734375 1.53125 1.734375 3.46875l0 10.859375l2.1875 0q0.609375 0 0.859375 0.234375q0.265625 0.21875 0.265625 0.578125q0 0.359375 -0.265625 0.59375q-0.25 0.234375 -0.859375 0.234375l-3.84375 0zm0 -8.171875q-1.15625 -0.328125 -2.453125 -0.484375q-1.28125 -0.15625 -2.703125 -0.15625q-3.578125 0 -5.578125 1.546875q-1.53125 1.15625 -1.53125 2.75q0 1.484375 1.15625 2.5q1.171875 1.015625 3.390625 1.015625q2.140625 0 3.953125 -0.84375q1.828125 -0.859375 3.765625 -2.703125l0 -3.625zm20.097656 -17.15625l0 4.234375l-2.421875 0l0 -4.234375l2.421875 0zm0.0625 8.40625l0 15.28125l6.4375 0q0.609375 0 0.859375 0.234375q0.265625 0.21875 0.265625 0.578125q0 0.359375 -0.265625 0.59375q-0.25 0.234375 -0.859375 0.234375l-14.53125 0q-0.578125 0 -0.84375 -0.234375q-0.25 -0.234375 -0.25 -0.59375q0 -0.359375 0.25 -0.578125q0.265625 -0.234375 0.84375 -0.234375l6.453125 0l0 -13.609375l-4.78125 0q-0.59375 0 -0.859375 -0.234375q-0.265625 -0.234375 -0.265625 -0.59375q0 -0.375 0.25 -0.609375q0.265625 -0.234375 0.875 -0.234375l6.421875 0zm17.832031 0l0 2.484375q1.71875 -1.734375 3.09375 -2.390625q1.390625 -0.671875 3.140625 -0.671875q1.875 0 3.40625 0.796875q1.09375 0.59375 1.984375 1.953125q0.890625 1.34375 0.890625 2.78125l0 10.328125l1.390625 0q0.578125 0 0.828125 0.234375q0.265625 0.21875 0.265625 0.578125q0 0.359375 -0.265625 0.59375q-0.25 0.234375 -0.828125 0.234375l-4.390625 0q-0.609375 0 -0.875 -0.234375q-0.25 -0.234375 -0.25 -0.59375q0 -0.359375 0.25 -0.578125q0.265625 -0.234375 0.875 -0.234375l1.359375 0l0 -10.0625q0 -1.734375 -1.265625 -2.9375q-1.265625 -1.203125 -3.40625 -1.203125q-1.609375 0 -2.8125 0.65625q-1.1875 0.65625 -3.390625 3.25l0 10.296875l1.859375 0q0.578125 0 0.828125 0.234375q0.265625 0.21875 0.265625 0.578125q0 0.359375 -0.265625 0.59375q-0.25 0.234375 -0.828125 0.234375l-5.359375 0q-0.578125 0 -0.84375 -0.234375q-0.25 -0.234375 -0.25 -0.59375q0 -0.359375 0.25 -0.578125q0.265625 -0.234375 0.84375 -0.234375l1.859375 0l0 -13.609375l-1.390625 0q-0.578125 0 -0.84375 -0.234375q-0.25 -0.234375 -0.25 -0.609375q0 -0.359375 0.25 -0.59375q0.265625 -0.234375 0.84375 -0.234375l3.03125 0zm40.20703 27.875l-21.8125 0q-0.578125 0 -0.84375 -0.21875q-0.25 -0.21875 -0.25 -0.59375q0 -0.375 0.25 -0.609375q0.265625 -0.21875 0.84375 -0.21875l21.8125 0q0.609375 0 0.84375 0.21875q0.25 0.234375 0.25 0.609375q0 0.375 -0.25 0.59375q-0.234375 0.21875 -0.84375 0.21875zm7.8007812 -27.875l0 2.484375q1.71875 -1.734375 3.09375 -2.390625q1.390625 -0.671875 3.140625 -0.671875q1.875 0 3.40625 0.796875q1.09375 0.59375 1.984375 1.953125q0.890625 1.34375 0.890625 2.78125l0 10.328125l1.390625 0q0.578125 0 0.828125 0.234375q0.265625 0.21875 0.265625 0.578125q0 0.359375 -0.265625 0.59375q-0.25 0.234375 -0.828125 0.234375l-4.390625 0q-0.609375 0 -0.875 -0.234375q-0.25 -0.234375 -0.25 -0.59375q0 -0.359375 0.25 -0.578125q0.265625 -0.234375 0.875 -0.234375l1.359375 0l0 -10.0625q0 -1.734375 -1.265625 -2.9375q-1.265625 -1.203125 -3.40625 -1.203125q-1.609375 0 -2.8125 0.65625q-1.1875 0.65625 -3.390625 3.25l0 10.296875l1.859375 0q0.578125 0 0.828125 0.234375q0.265625 0.21875 0.265625 0.578125q0 0.359375 -0.265625 0.59375q-0.25 0.234375 -0.828125 0.234375l-5.359375 0q-0.578125 0 -0.84375 -0.234375q-0.25 -0.234375 -0.25 -0.59375q0 -0.359375 0.25 -0.578125q0.265625 -0.234375 0.84375 -0.234375l1.859375 0l0 -13.609375l-1.390625 0q-0.578125 0 -0.84375 -0.234375q-0.25 -0.234375 -0.25 -0.609375q0 -0.359375 0.25 -0.59375q0.265625 -0.234375 0.84375 -0.234375l3.03125 0zm34.01953 16.921875l0 -2.359375q-3.578125 3.0 -7.640625 3.0q-2.9375 0 -4.609375 -1.484375q-1.65625 -1.5 -1.65625 -3.671875q0 -2.375 2.1875 -4.15625q2.1875 -1.78125 6.390625 -1.78125q1.125 0 2.453125 0.15625q1.328125 0.140625 2.875 0.453125l0 -2.65625q0 -1.34375 -1.25 -2.34375q-1.25 -1.0 -3.75 -1.0q-1.90625 0 -5.375 1.109375q-0.625 0.203125 -0.796875 0.203125q-0.3125 0 -0.546875 -0.234375q-0.21875 -0.234375 -0.21875 -0.59375q0 -0.328125 0.203125 -0.515625q0.265625 -0.296875 2.203125 -0.8125q3.046875 -0.8125 4.609375 -0.8125q3.109375 0 4.84375 1.53125q1.734375 1.53125 1.734375 3.46875l0 10.859375l2.1875 0q0.609375 0 0.859375 0.234375q0.265625 0.21875 0.265625 0.578125q0 0.359375 -0.265625 0.59375q-0.25 0.234375 -0.859375 0.234375l-3.84375 0zm0 -8.171875q-1.15625 -0.328125 -2.453125 -0.484375q-1.28125 -0.15625 -2.703125 -0.15625q-3.578125 0 -5.578125 1.546875q-1.53125 1.15625 -1.53125 2.75q0 1.484375 1.15625 2.5q1.171875 1.015625 3.390625 1.015625q2.140625 0 3.953125 -0.84375q1.828125 -0.859375 3.765625 -2.703125l0 -3.625zm11.816406 -8.75l0 1.671875q2.09375 -2.25 4.203125 -2.25q1.265625 0 2.21875 0.671875q0.96875 0.671875 1.609375 2.046875q1.09375 -1.375 2.21875 -2.046875q1.125 -0.671875 2.25 -0.671875q1.78125 0 2.828125 1.15625q1.390625 1.484375 1.390625 3.234375l0 11.46875l1.390625 0q0.578125 0 0.828125 0.234375q0.265625 0.21875 0.265625 0.578125q0 0.359375 -0.265625 0.59375q-0.25 0.234375 -0.828125 0.234375l-3.03125 0l0 -12.953125q0 -1.25 -0.765625 -2.0625q-0.75 -0.828125 -1.75 -0.828125q-0.90625 0 -1.90625 0.671875q-0.984375 0.671875 -2.25 2.65625l0 10.875l1.359375 0q0.59375 0 0.84375 0.234375q0.25 0.21875 0.25 0.578125q0 0.359375 -0.25 0.59375q-0.25 0.234375 -0.84375 0.234375l-3.03125 0l0 -12.828125q0 -1.3125 -0.765625 -2.15625q-0.765625 -0.859375 -1.734375 -0.859375q-0.875 0 -1.734375 0.5625q-1.1875 0.8125 -2.5 2.765625l0 10.875l1.390625 0q0.578125 0 0.828125 0.234375q0.265625 0.21875 0.265625 0.578125q0 0.359375 -0.265625 0.59375q-0.25 0.234375 -0.828125 0.234375l-4.421875 0q-0.578125 0 -0.84375 -0.234375q-0.25 -0.234375 -0.25 -0.59375q0 -0.359375 0.25 -0.578125q0.265625 -0.234375 0.84375 -0.234375l1.390625 0l0 -13.609375l-1.390625 0q-0.578125 0 -0.84375 -0.234375q-0.25 -0.234375 -0.25 -0.609375q0 -0.359375 0.25 -0.59375q0.265625 -0.234375 0.84375 -0.234375l3.03125 0zm40.347656 8.859375l-16.71875 0q0.4375 3.171875 2.671875 5.125q2.234375 1.9375 5.53125 1.9375q1.84375 0 3.84375 -0.59375q2.015625 -0.609375 3.296875 -1.609375q0.359375 -0.296875 0.640625 -0.296875q0.3125 0 0.546875 0.25q0.234375 0.234375 0.234375 0.578125q0 0.328125 -0.3125 0.640625q-0.9375 0.96875 -3.328125 1.828125q-2.390625 0.84375 -4.921875 0.84375q-4.21875 0 -7.046875 -2.765625q-2.8125 -2.765625 -2.8125 -6.6875q0 -3.578125 2.640625 -6.125q2.65625 -2.5625 6.5625 -2.5625q4.015625 0 6.609375 2.625q2.609375 2.625 2.5625 6.8125zm-1.65625 -1.671875q-0.484375 -2.703125 -2.5625 -4.40625q-2.078125 -1.703125 -4.953125 -1.703125q-2.875 0 -4.953125 1.6875q-2.0625 1.671875 -2.5625 4.421875l15.03125 0z" fill-rule="nonzero"/></g></svg>